<svg xmlns="http://www.w3.org/2000/svg" viewBox="0 0 191.24 66.87"><defs><style>.cls-1{fill:#f15a29;}</style></defs><g id="Layer_2" data-name="Layer 2"><g id="Layer_1-2" data-name="Layer 1"><path class="cls-1" d="M67.67,3.09C65.33,1.47,62.49,2,60.56,4.33a38.45,38.45,0,0,0-3,4.4C51.12,19,45,29.44,38.2,39.45A84.41,84.41,0,0,1,25.56,53.84,28.59,28.59,0,0,1,14.92,59.6C9.18,61.4,6,58.1,7,52.07c.68-4.27,3.07-7.51,6.34-10.19,2.16-1.77,4.36-3,7.28-1.39.69.37,1.86-.07,2.88-.16-1.63-5.94-5.19-7.92-10.35-5.56a21.47,21.47,0,0,0-12.27,14C-.61,54-.47,59.15,3.39,63.35c4,4.38,9.33,3.92,14.46,2.61a29.84,29.84,0,0,0,14-8.44c4-4.05,7.53-8.5,11.19-12.87,1.17-1.37,2-2.8,4.26-2.59,4.22.41,8.47.57,13.3.88-.32,5-.66,9.38-.86,13.8-.18,4.11,0,10,2.14,10.13s4.19-6,4.56-9.7c.43-4.44.84-8.87,1.08-13.32.69-12.6,1.34-25.2,1.85-37.82A4.1,4.1,0,0,0,67.67,3.09ZM61.09,37c-4-.28-7.61-.53-12.17-.87,4.2-6.8,8-13,11.91-19.18l1.1.39C61.65,23.81,61.38,30.25,61.09,37Z"/><path class="cls-1" d="M102.12,44.22c-1-6-5.52-9.59-11.67-9.59-1.73,0-3.49.25-5.72.42.43-4.48,1.13-8.38,1.09-12.28a62.09,62.09,0,0,0-1.31-11c-.28-1.45-1.25-3.26-3.34-2.63-1.86.53-1.91,2.13-1.89,3.89,0,4.94.1,9.93-.29,14.84-.57,7.44-1.75,14.84-2.2,22.29A21.1,21.1,0,0,0,78.33,59c3.68,9.24,13.16,10.6,19.36,2.86A21.43,21.43,0,0,0,102.12,44.22ZM91.52,58.31A5.33,5.33,0,0,1,87.78,60a5.46,5.46,0,0,1-3.72-1.89c-3-3.13-1.44-8.27-1.31-8.69.53-4.13,2.57-6.76,6.09-7.35,4-.66,6.1.9,6.4,5S94.7,55.25,91.52,58.31Z"/><path class="cls-1" d="M173.28,19.13a17.16,17.16,0,0,0,4.17,1.31c0,2.54,0,5,0,7.49,0,8.9-.16,17.8.17,26.69A29.29,29.29,0,0,0,180,63.86c1,2.69,3.16,3.57,5,2.67,2.1-1,2.58-2.84,2-5-3.54-13.53-1-27.26-1.85-40.85,1.42-.53,2.6-.67,3.35-1.32a23,23,0,0,0,2.77-3.4A24.4,24.4,0,0,0,188,13.71a12.07,12.07,0,0,0-3-.67c-.43-2-.48-3.92-1.25-5.45a30.59,30.59,0,0,0-4.34-6.5c-1.07-1.2-3.12-1.67-4.21,0a4.32,4.32,0,0,0,0,3.76c1.42,2.55,2.51,5,2,8.25a13.2,13.2,0,0,0-3.59.81c-1,.52-2.19,1.58-2.27,2.49S172.37,18.57,173.28,19.13Z"/><path class="cls-1" d="M143.67,59.35c2.13,4.48,4.78,5.39,9.61,3.71.65-.23,1.27-.49,1.85-.71a32.28,32.28,0,0,0,3.2,3.78c1.43,1.25,3,.77,4.35-.38,1.18-1,2-2.38.77-3.67-2-2.12-1.68-4.66-1.53-7.07.38-6.4,1.06-12.78,1.56-19.17a9.93,9.93,0,0,0-.21-4.19,3.78,3.78,0,0,0-2.63-2.09,3.62,3.62,0,0,0-2.88,1.72,17.47,17.47,0,0,0-1.11,5.18c-.49,4.24-.73,8.52-1.33,12.75-.5,3.53-1.58,6.86-5.51,8.46-2.36-3-2.83-6.38-3-9.74-.2-4.45-.18-8.91-.27-13.37,0-2,0-4-3.28-4.84-.59,1.41-1.71,2.89-1.75,4.4-.17,6.21-.19,12.44.12,18.65A18.09,18.09,0,0,0,143.67,59.35Z"/><path class="cls-1" d="M127.22,36.43c-2.38-2.06-4.94-3-7.74-1.09-2.44,1.68-5.17,3.29-6.87,5.59-4.27,5.83-3.47,16.47,1.18,22a10.12,10.12,0,0,0,14.3,1.68,15.21,15.21,0,0,0,6-11.38C134.1,46.42,131.2,39.86,127.22,36.43ZM125,58.54c-1.88,2.59-4.75,2.18-6.63-.43-3.95-5.5-2.65-13.42,3.13-18a14.05,14.05,0,0,1,6,11.71A12.37,12.37,0,0,1,125,58.54Z"/></g></g></svg>