<svg xmlns="http://www.w3.org/2000/svg" viewBox="0 0 340.7 151.35"><defs><style>.cls-1{fill:#222510;}</style></defs><g id="Layer_2" data-name="Layer 2"><g id="Layer_2-2" data-name="Layer 2"><path class="cls-1" d="M166.46,114.89c-2.16,1.25-3.56,3.15-5.07,4.61-3.69,3.6-3.69,3.6-5.14,5.69a36.29,36.29,0,0,1-2.55,3.27,3.76,3.76,0,0,1,.25-.31c.19-.25.39-.49.57-.74-.33.42-.72.84-1,1.18-.48.51-.82.8-.66.51-.59.64-1.22,1.25-1.83,1.88v-.2a20.86,20.86,0,0,1-4.92,3.26,19.82,19.82,0,0,1-5.72,1.79,9.69,9.69,0,0,0,1.7-.16,18.84,18.84,0,0,1-5.82.51h-.14a12,12,0,0,1-1.81-.31c1.2.14.36-.07.34-.14-.59-.1-1.28-.2-2-.38l1.24,0a7.68,7.68,0,0,1-1.63-.21c-.71-.22-1.59-.46-2.43-.8s-1.67-.7-2.32-1.08-1.19-.65-1.46-.78l.35.14c-.86-.48-1.22-.76-1.36-.84s0,0,.08.12.64.55-.49-.18c-1.88-1.29-.59-.66-2.2-2a30.66,30.66,0,0,1-5.35-5.17,25.86,25.86,0,0,1-3.92-6.74,41.27,41.27,0,0,1-3-10.26c-.37-3.18.25.15-.17-3.06.12.34.18-.1.24-.4-.13-.48-.36-6-.43-3.45-.22-4.68-.39-10-.55-14.91.06,1.65.23,2.08.28.69-.22-2.28-.38-6.29-.38-10.45-.17.08-.15,1.44-.32,1,0-.61-.12-1.62-.12-2.65.17-.6.44-.43.41-4.16.28,1,0,6.35.28,4.65.22,1.65.33,8.36.24,9.88.3,3.3,0-2.6.21-2-.07-3-.2-4.38-.29-9-.11-.06-.12,1.51-.23-.62a33.11,33.11,0,0,1,.13-6.2c0,.6.06,1.43.08,2,.06-2.73-.1-3.69-.11-6.59.3-.79.07,4.63.26,5.69l.21-2.09c0-4.46-.26-1.22-.22-5.82l.12.56-.1-2.87c-.12,0-.28.58-.24,3-.31-1.61,0-2.26-.16-6.17-.19-1.26,0,1.65-.13,1.74-.15.39-.19-2.3-.25-4.26-.05-3.21.15-1.65.25-2.95a19.3,19.3,0,0,1,0,2.82c.24,4,.32-1.73.49,1a29.54,29.54,0,0,0-.24-4.44c0,.82-.17-.49-.22.17-.53-5.24.29-3.36.18-8.4-.28,1.07-.47-6.75-.75-3.06-.07-1.21-.16-2.74-.16-4,.23,1.34.1-2.26.35.13l0-1.85.31,2.78c.11-2,.1-5.46.13-6.57-.27-2.67-.14.85-.4-2.25.19,1.08.13-.84,0-2.21.15,2.76-.26.06-.51-1.66a34,34,0,0,1-.41-4.52c.19.87.41,1.73.57,2.6-.42-2,0-.89-.43-2.92-.22-.56-.61-1.77-.89-2.42-.42-1.73-.7-3-.93-3.55.36.88.65,1.78.93,2.69a9,9,0,0,1-.52-2.24c0-.22,0-.48-.76-2.26-.17-.29-.36-.57-.56-.85-.26-.58-.4-.93-.2-.67-.2-.3-.48-.78-.8-1.28a10.58,10.58,0,0,0-1.35-1.68c-.05-.09-.08-.19-.14-.28a4.4,4.4,0,0,0-1.44-.89,2.89,2.89,0,0,0-1.13-.18l-.56.1-.44.16a16.93,16.93,0,0,0-2.74,1.62c.69-.4,1.1-.69,1.69-1.06a5.49,5.49,0,0,1,1.19-.58,2.65,2.65,0,0,1,1.12-.15,2.76,2.76,0,0,1,1.33.47c.45.34.44.41.25.29l-.47-.27-.4-.16a1.81,1.81,0,0,0-.51-.13,2.43,2.43,0,0,0-1.12.1A4.61,4.61,0,0,0,98.7,4a6.39,6.39,0,0,0-.93.57c0-.17-.92.42-1.88,1.32a28.3,28.3,0,0,0-2.57,2.84,18.45,18.45,0,0,0-1.78,2.22c-.08.26-.16.5-.22.74-.66.46-1.68,3.36-2.71,5.2.39-1,.2-.93-.51.37,1.13-1.66-1.17,3.05-.76,2.58-1.82,3.28.12-.92-.55,0-.68,1.72-2.09,3.64-2.45,4.85,1.36-2.37-.06.45-.23,1-1.64,3,.17-.56-1.06,1.54-.65,1.28-1.36,3-.25,1.1-1,1.74-1.85,3.84-3,5.75-.58.73,1.92-3.74,1.21-2.64-2.27,4.19-.79,2.29-2.84,6.22,1-1.63.36.1-.57,2-2.38,4.29.93-1.93-.13-.38L76.52,41c-1.54,2.27,2.33-5.31.91-3.13l-.93,1.91c.16-.45.35-1.11-.13-.38-.08.57-2.3,4.39-2.45,4.75s.78-1.54.73-1.18c-1,2-1.27,3-3,6,.8-1.74-.54.54-.25-.2-.87,1.46-.08.56-1.31,2.65l0-.28c-4.31,8-9.64,17.9-13,24.93-.41.6-1,1.53-1.7,2.81l-.51.89-.24.39-.12.19-.06.1s0-.07-.06-.1-.15-.33-.23-.51c.12.29.13.39,0,.32L54.12,80c-.07-.12-.11-.16-.28-.48l-.85-2c-1.15-2.39-2.92-5.33-4.16-7.44a2.21,2.21,0,0,1-.2-.67,14.59,14.59,0,0,0-1.69-2.88l-.61-1.41-.27-.24c-1.17-2-2.6-4.81-2.27-4.64-.47-.8-.93-1.58-.44-.51-1-2.13-4-7.8-6.05-11.5.89,1.79.75,1.67.71,1.88-.48-.43-.41-.86-1.32-2.29.06-.08-.77-1.81.25,0-2.39-5.11-6.29-12-9.56-18.23a10.19,10.19,0,0,0-.91-1.43c-1.9-4.05-4.68-8.77-6.86-13.08.43,1-.52-.21-1.78-2.58a7.56,7.56,0,0,1-1-1.83c-.09-.28-.07-.6-1-1.67a15.24,15.24,0,0,0-2.19-1.55A20.64,20.64,0,0,0,11.47,6.3h.1l-1.33-.47a4.68,4.68,0,0,0-1.81-.33,3.51,3.51,0,0,0-1.87.68c-.45.31-.89.64-1.29,1l.24-.22A11.07,11.07,0,0,0,2.3,11.2c-.08.39-.53,1.53-.86,2.75A17,17,0,0,0,.88,16.9c-.05.2,0-.1-.13.33l.13.17C.67,18.48.51,19.57.39,20.67a14.49,14.49,0,0,1,0-1.83A6.2,6.2,0,0,0,.25,21c0,.09.13,0,.13.91A19.38,19.38,0,0,1,.26,25.4c-.07-1,0-1.79,0-2.39C.16,21.62.22,24.48.14,24.52a19.5,19.5,0,0,1,.13,2.53c0,1.55,0,5.16-.14,4.73.08,1.32.06,2.86.14,3.86a37.12,37.12,0,0,1,.18-3.82c0,1.14,0,3.39,0,3.75l0-.92c0,.92,0,4.25.14,2.52L.32,39.54c.12.89.11,3.27.13,5.22-.16.09-.34-1.49-.39,2.16l.16,3.14c0,1.65,0,2.08-.12,1.82C0,57.52.55,57.66.39,62.09.2,60.21.18,61.78.12,63.77a3.15,3.15,0,0,1,.1,1.09c.1-.57-.13-1.17,0-2.7C.35,61.69.3,64,.34,64.9-.09,68.84.21,78,0,84.43c.24-.43.07,2.86.15,4.17C-.09,88.2.19,92.21,0,94l.24-1c-.15,3.9.36,6.36.06,8.78-.08,2.2-.17-.74-.21-1.66-.27,3,.2,8.09-.1,10.51.1.26.26-.64.34,2-.1,2.12-.24,6.33-.28,5.94,0,1.74.12,2.21,0,4.12a12.39,12.39,0,0,1-.1-1.61,64,64,0,0,0,.25,8.19,12.69,12.69,0,0,0,1,4.63,23.8,23.8,0,0,0,1.45,2.8l1.49,2.49c.32.38.67.87,1,1.39.08.11.21.29.34.45a3.8,3.8,0,0,0,.47.43,3.07,3.07,0,0,0,1.12.51,2.87,2.87,0,0,0,2-.26c.49-.27.71-.59.71-.69,0,.08.32-.25.46-.39.79-1.06,1.35-2,2.29-3.38l-.15.56c0,.12.17-.06.43-.44a4.69,4.69,0,0,0,.43-.74,8.4,8.4,0,0,0,.37-.92c.39-1.11.65-2.29.78-2.74-.16.45-.06,0,.07-.58a6.75,6.75,0,0,0,.22-1.6c0-.34.06-.68.08-1l0-1c.1-3.1-.07-.37.08-4.2.06-2.17.25-.72.2,0,.17-1.82.16-3.67.16-5.55,0,.69,0,.93-.07.27a1.59,1.59,0,0,0,.07-.44q0-1.06,0-2.16v0c0,.79,0,1.52,0,2.06,0-.48,0-1.23,0-2a3.59,3.59,0,0,0,0-.65c0-.61,0-1.18.05-1.56l.15.52a48.86,48.86,0,0,0-.23-4.92c.11-5.22-.21-13.84-.38-17.39.05.67.1.73,0,.06-.08-1.81-.25-3.84-.15-4-.1-1.75.07-1.64,0-4.33,0,0-.08-.26-.11,0,.12-4.51-.27-10.15,0-15.5,0,.46.08,1.08.12,1.49,0-4.21.12-8.18.08-12a4.07,4.07,0,0,1,.13,1.28A70.72,70.72,0,0,0,15,52.17c-.08,2,.08.13.07,1.47-.15,2.09-.26-1.66-.25-3.58l0-.05c0-2.92-.12-3-.16-5.95.06-1.75.06,1.51.15.82s.07-6.65.11-7.23c0-.28-.05-.62-.07-.88s-.05-.45-.08-.43c-.05-1.94.15-.61.15-1.75l-.05-.77,0-.42v-.32s0-.08,0,0l.58.82c.32.47.7,1,1.12,1.67l.23.43c0,.1.11.3.17.47.15.38.19.6-.29-.16l.77,1.35.77,1.31c.5.82,1,1.56,1.38,2.26l.47.74q2.52,4.63,5.05,9.25c-.07,0,.41,1.14-.19.17,1.29,2.17,4.09,7.47,5.88,10.82-.8-1.91,1.24,1.88,2.22,3.47l.56,1-.22-.05.26.47v-.34L34.92,69c0,.14-.05.16.28.81,2.31,4,4.35,7.87,6.4,11.53,0,0,0,.07-.13-.12,1.86,3.19,4.59,8.42,6.69,11.69l.24.38c-.1-.07,0,.17-.52-.61a7.09,7.09,0,0,0,1.45,2.08l.05,0c.47.68,1,1.38,1.48,2.07l-.49-.52,1.36,1.74.68.87a5.3,5.3,0,0,0,.74.84,2.48,2.48,0,0,0,2.24.42,2.24,2.24,0,0,0,1-.64,10.79,10.79,0,0,0,.76-1c.12,0-.32.55-.62.94a43.8,43.8,0,0,0,4.34-6.34c.22-.35.42-.7.61-1,.08-.14.16-.28.23-.42A5,5,0,0,1,61.19,93,30.87,30.87,0,0,0,63,89.45l1.56-2.79c.26-.4.48-.74.48-.72.16-.33.39-.8.67-1.34l3.61-6.45.75-1.24c6.67-12.11,13.5-24.45,20-36.62l2.41-4.4c.94-1.29-1.73,3.4-.84,2.13-.27,0,1.3-2.48,3.15-6L94.9,32c.21-.41.4-.75.57-1l0-.06v1c0,.74,0,1.42,0,2.26l.06-.13c0,.45,0,1,0,1.55s0,1.18-.07,1.73a12.36,12.36,0,0,0,0,2.73l-.16,1.74c.23,2.22-.09,3.55.08,6.29l0-.31c-.15,3.71.14,7.72-.07,9.14,0,2.52,0,5.35,0,6.69,0,.36,0,.71,0,1.07-.06,0-.11-.29-.14-.58-.1,8.58-.2,17.9,0,26.4q.12,6.32.47,12.61c1.26,22,11.63,37.23,27.78,43.89l.24.1.62.25c.7.29,1.42.56,2.13.81a34.19,34.19,0,0,0,11.77,2l.56,0a33.54,33.54,0,0,0,11.9-2.35,2,2,0,0,0,.59-.2c.32-.14.64-.31,1-.46l.61-.29.72-.35a33.09,33.09,0,0,0,17.11-21.59,16.82,16.82,0,0,0,.13-8.29A3,3,0,0,0,166.46,114.89Zm-151.2-2.27c0,.4,0,.89,0,1.42C15.26,113.51,15.25,113,15.26,112.62ZM147,133.8c.43-.24.92-.61,1.44-.93.26-.17.53-.33.77-.5l.68-.53c.43-.32.79-.58,1-.71a.66.66,0,0,1,.2-.09,24.35,24.35,0,0,1-2.45,1.86s0-.05-.09,0c-.68.47-.92.68-1.45,1l-.36.19-.64.31A7.69,7.69,0,0,1,147,133.8Zm-18.5.27,1,.44c-.89-.37-1.79-.79-2.69-1.27l.39.15A8.83,8.83,0,0,0,128.51,134.07Z"/><path class="cls-1" d="M15.3,119.05v0Z"/><path class="cls-1" d="M105.05,7.54c.06.09.11.17.16.23Z"/><path class="cls-1" d="M110.23,103.94a.58.58,0,0,0,0,.17C110.2,104.18,110.21,104.14,110.23,103.94Z"/><path class="cls-1" d="M14.86,70.54V71S14.89,70.8,14.86,70.54Z"/><path class="cls-1" d="M65.06,85.94,65,86A.37.37,0,0,0,65.06,85.94Z"/><path class="cls-1" d="M110.4,104.36a9.47,9.47,0,0,0,.22,1.79C110.53,105.26,110.46,104.7,110.4,104.36Z"/><path class="cls-1" d="M110.4,104.36a27.17,27.17,0,0,0-.14-3.24c0-.66.21.95.14-.62-.2-1.37-.28.79-.16,3.31a.62.62,0,0,0,0,.13C110.27,103.83,110.32,103.9,110.4,104.36Z"/><path class="cls-1" d="M109.34,47.22c0,.59,0,1,0,1.38C109.38,48.36,109.37,47.94,109.34,47.22Z"/><path class="cls-1" d="M110.48,107.09a4.3,4.3,0,0,1,.25,1.06c0-.65-.24-1.39-.31-2.21A6.6,6.6,0,0,0,110.48,107.09Z"/><path class="cls-1" d="M110,96.06c-.12-2.17-.31-5.84-.41-6.1Q109.77,93,110,96.06Z"/><path class="cls-1" d="M109.69,73.93c.06.38.09,1,.14.86C109.81,72.92,109.77,72.54,109.69,73.93Z"/><path class="cls-1" d="M109.53,70.47c0-.11,0-.22,0-.33A1.46,1.46,0,0,0,109.53,70.47Z"/><path class="cls-1" d="M109.46,72.79c.14.35.06-1.53.07-2.32C109.49,71,109.45,71.68,109.46,72.79Z"/><path class="cls-1" d="M109.38,34.49c-.09.79,0,2.61,0,3.45C109.56,38.58,109.33,35.37,109.38,34.49Z"/><path class="cls-1" d="M108.27,20.3a10.58,10.58,0,0,1,.17,1.35l.07-.49C108.4,20.34,108.19,19.33,108.27,20.3Z"/><polygon class="cls-1" points="0.06 95.07 0.1 96.82 0.15 95.33 0.06 95.07"/><path class="cls-1" d="M15.36,60c0,.29-.15-.25-.17,1.51C15.27,59.4,15.3,61.58,15.36,60Z"/><path class="cls-1" d="M315.5,133.7c-2.26,2.05-4.77,3.18-5.54,4-1.07,1.2-3.1,1.93-5.7,2.19l.33-.07c-.7.11-1.48.07-1.2-.06-.48.07-1,.09-1.44.13l.07-.15a38.1,38.1,0,0,1-6.56-.7c.29.12.59.22.9.33-.72-.13-1.46-.23-2.18-.36l-1.3-.33a5.76,5.76,0,0,1-.73-.27c.65.13.21-.07.22-.15a6.4,6.4,0,0,1-1.09-.27l.71,0a6.61,6.61,0,0,1-2.26-.54c-.94-.33-1.85-.75-2.17-.85l.21,0c-2-1,.3.28-1.06-.3-1.13-.54-.32-.44-1.32-1a30.21,30.21,0,0,1-7.16-4.43,45.59,45.59,0,0,1-4.49-3.82c-1.07-1.36.24-.07-.89-1.4.18.11.13-.15.11-.33a6.23,6.23,0,0,1-.67-1c-.35-.67-.68-1.29-.43-.51a40.38,40.38,0,0,1-2.6-7.64c.22.87.43,1.06.34.31-.21-.59-.47-1.41-.71-2.37s-.46-2.06-.61-3.19c-.15.07,0,.8-.23.59a13.79,13.79,0,0,1-.32-1.42c.13-.36.37-.3.1-2.32.32.51.5,3.44.61,2.48a40.67,40.67,0,0,1,1.1,5.28c.62,1.69-.28-1.38,0-1.11-.32-1.59-.61-2.3-1-4.8-.12,0,0,.83-.28-.3a9.52,9.52,0,0,1-.3-3.39l.21,1.1c-.13-1.49-.35-2-.52-3.57.25-.47.33,2.51.62,3.06l.06-1.16c-.27-2.42-.33-.63-.56-3.14l.15.29-.25-1.55c-.12,0-.26.34-.08,1.68-.4-.84-.18-1.23-.48-3.35-.24-.67.12.9,0,1-.13.23-.3-1.23-.44-2.3-.18-1.76.09-.92.13-1.64.06.33.22,1.68.11,1.54.4,2.15.25-1,.53.51A9.56,9.56,0,0,0,267,96c0,.45-.2-.26-.22.12-.75-2.84.15-1.88-.2-4.63-.24.61-.76-3.65-.89-1.61a19.38,19.38,0,0,1-.29-2.18c.27.72,0-1.25.35,0l-.09-1,.38,1.5c0-1.13,0-3,0-3.6-.22-1.45-.15.47-.35-1.21.16.58.15-.47.08-1.22.06,1.51-.28,0-.42-.89a7,7,0,0,1,0-2.46l.29,1.41c-.24-1.08,0-.49-.12-1.59-.14-.3-.37-1-.53-1.33-.11-.93,0-1.61-.06-1.94l.22,1.49c-.18-2,.27-.45.08-2.45l-.19-.51c0-.32.05-.5.1-.37-.08-.43-.1-1.35-.15-1.78l.1-.13a8.84,8.84,0,0,1-.08-2.88,9.83,9.83,0,0,0-.13,2.43c-.17.89-.19-1.41-.19-1.74.25.1.07-2.13.21-3.12.15-.56.29-1,.38-1.37l-.09-.4c.38-.29.33-1.91.9-2.83-.14.53,0,.5.37-.13-.31.39-.24,0-.06-.47s.47-1,.31-.89c.6-.74.63-.55.51-.31s-.26.68,0,.51a1.78,1.78,0,0,1,.38-.57,2.32,2.32,0,0,1,.49-.46c.15-.13.33-.23.48-.34a4.29,4.29,0,0,0,.38-.33c-.57.26-.52.23-.36,0s.56-.39.66-.51c1.6-.56-.22.19.93-.11.66-.23,1.59-.61.45-.43a12.1,12.1,0,0,1,3.4-.46c.25.06-.31.11-.84.15s-1,.13-.68.15c2.52-.18,1.23-.52,3.64-.6-1-.1,0-.37,1.14-.43,2.69.18-1.18,0-.16.29.36,0,.72,0,1.07,0,.74.18-.06.25-.86.33s-1.59.17-.89.3l1.15-.07c-.26.07-.63.21-.16.29a16.35,16.35,0,0,1,2.9.07c.25-.14-.94,0-.75-.13a20.72,20.72,0,0,1,3.69.08c-1,0,.38.26-.06.32.91.16.3-.17,1.62.05l-.16.09,3.88.44,1,.11c.36,0,.63.08,1.1.11a7.64,7.64,0,0,0,2.33-.3,8.15,8.15,0,0,0,2.1-.86,4.06,4.06,0,0,0,1.78-1.78,3.92,3.92,0,0,0,.09-2.33,7.61,7.61,0,0,0-.63-1.76,4.88,4.88,0,0,0-.83-1.84,5.6,5.6,0,0,0-1.14-1.14c-.42-.33-.88-.69-1.4-1.06.91.67-.05.15-.61-.16a12.37,12.37,0,0,0-1-.79,13.69,13.69,0,0,0-4.55-1.76.74.74,0,0,1-.34-.25,3.92,3.92,0,0,0-1.92-.26l-.85-.26-.21.11c-1.34-.09-3.09-.13-2.92-.33-.52,0-1,.08-.37.14a64.94,64.94,0,0,0-7.16.22c1.08,0,1,.08,1.09.22-.33.24-.52,0-1.44.13,0-.08-1.07-.16.05-.23l-1.2-.08c-.4,0-.9,0-1.13-.1a1.89,1.89,0,0,1-1.32-1.2,1.83,1.83,0,0,1-.11-.51l-.06-.72-.12-1.45c0-.49-.09-1-.08-1.46l0-1.47a2.78,2.78,0,0,0-.1-.92c.33-2.44.27-5.46.45-8.13-.12.6-.34-.25-.33-1.73-.17-1.62.28-.65.38-2.12-.09-.73-.16-2.11-.19-2.69l0,.05c-.15-.92-.31-2.26-.4-3.43l.05.2a6.19,6.19,0,0,0-1.28-2.87c-.38-.27-1.84-2-2.35-2.25-.07-.09.06,0-.09-.18l-.16.06-1.26-1.3a9,9,0,0,1,.84.55c-.67-.69-.82-.77-.89-.76s0,.12-.56-.23a5,5,0,0,0-1.37-.54,3,3,0,0,0-.85-.14,3,3,0,0,1,1.62.24c.46.16.25,0-.12-.12s-.87-.21-.89-.25a1.75,1.75,0,0,0-.56.08,8.47,8.47,0,0,0-1.14.38,3.24,3.24,0,0,0-.84.55,4,4,0,0,0-.39.43l-.28.37c-.35.47-.62.82-.62.68-.35.65-.83,1.38-1.06,1.9a9.61,9.61,0,0,1,1.31-1.71c-.35.53-1,1.62-1.15,1.76l.24-.46c-.25.45-1.21,2-.6,1.28q-.42.53-.81,1.08a21.48,21.48,0,0,0-.89,2.88c-.09,0-.13-.23-.21-.2s-.23.32-.34,1.39a17.4,17.4,0,0,0,.11,1.8c0,.93,0,1.17-.09,1,0,3.13.58,3.09.33,5.57-.15-1.05-.21-.18-.3.92,0,.05.1.15.09.6.1-.31-.12-.65,0-1.49.13-.25,0,1,.08,1.52a25.67,25.67,0,0,0-.3,4.87,57.67,57.67,0,0,1-.15,5.84c.26-.21,0,1.53-.09,2.18-.12-.13-.16.34-.34.87a2.68,2.68,0,0,1-.82,1.37,4.89,4.89,0,0,0,.48-.2,8.79,8.79,0,0,1-1.84,1.64,4.58,4.58,0,0,1-1.89.8c-1.14.33.34-.28.75-.52-1.55.39-4.07,1.59-5.43,1.66-.12.13.4.16-1,.63-1.16.2-3.43.68-3.23.58a12.12,12.12,0,0,1-2.18.63,4.62,4.62,0,0,1,.83-.33,37.54,37.54,0,0,0-4.29,1.33c-.92.07-3.7,1-5.57,1.24-1,.47-3,.52-3.11.82,0,0-.21,0-.32,0a10.76,10.76,0,0,1-2.12.59l.26-.22c.09-.14-.54-.08-1.23,0a14.07,14.07,0,0,1-1.49.08c.55.1-1.08,0-1.14.17l-1,.08c-1.68,0-.2.09-2.27,0-1.17-.12-.38-.26,0-.19a20.23,20.23,0,0,0-2.07-.3l-.93-.13c.41.07.56.1.18.09,0,0-.1-.06-.22-.1a8.65,8.65,0,0,1-1.13-.21h0c.42.1.82.17,1.1.22l-.79-.18-.27-.07a.81.81,0,0,0-.31-.09,8.19,8.19,0,0,1-.82-.26l.32-.07-.7-.17-.85-.24a5.75,5.75,0,0,0-1-.21,34.88,34.88,0,0,1-4.89-2.71,22,22,0,0,1-2.88-2.25c.25.19.29.17,0,0a15.63,15.63,0,0,1-1.65-1.49c-.79-.61-.56-.72-1.84-1.67,0,0-.17,0-.05.11a4.76,4.76,0,0,0-.76-.5,3.35,3.35,0,0,0-.64-.23,2.36,2.36,0,0,0-.75,0,1.8,1.8,0,0,0-1.22.85,3.77,3.77,0,0,0-.48,1.27,17.84,17.84,0,0,0-.05,4.84,6.38,6.38,0,0,0-.26-1A15.32,15.32,0,0,0,196,57.1a1.33,1.33,0,0,1-.47-.57A12.77,12.77,0,0,0,198,60.1c-.61-.93-.11,0-.55-.62-.56-1,.73.61,1.43,1.42v0a20.56,20.56,0,0,0,2.48,2.19c.37.31.19.2-.05,0s-.5-.4-.38-.24a1.52,1.52,0,0,0,.51.57c.29.22.67.49,1.06.76a6.61,6.61,0,0,0,1.11.65l.64.33c.37.14.89.35.86.25,1.21.39.49.34,1.32.64a14.3,14.3,0,0,0,1.83.32l.91.13.45,0,.28.06c.17.11.86.36,0,.26.65.1,1.22.22,1.76.25l1.47.06h.65a51.13,51.13,0,0,0,5.71.15c-.36.08.69.19-.05.28,1.4-.08,4.7-.23,6.79-.4-1.38-.12,2.33-.41,2.63-.65l1.47-.19c.39,0,.1.17.71.13,2.5-.45,4.89-.7,7.17-1.1,0,0,0,0-.08.07a64.52,64.52,0,0,0,7.39-1.68l.09,0c-.05.06.1.08-.4.23,1.23-.24,1.22-.34,1.38-.46l1.35-.33-.36.17c1-.33,2-.52,2.95-.79,0,.52.07,1,.15,1.63v.15c-.06,0-.1-.35-.14-.56.11,1.24.18,2.69.31,3.94,0,.36,0,.74.06,1.12a2.45,2.45,0,0,1-.15-.7,11.1,11.1,0,0,0,.24,2.28c0,.4.05.8.08,1.21s-.05,1.13-.07.87c.11.51.2,1.74.28,2.75l.09,1.34c0,.28,0,.83-.06,1.65.48,7.83,1,15.85,1.81,23.64.06.66.12,1.32.18,2-.13,1-.33-2-.41-1.17.21-.08.17,1.42.51,4l0,.11c.16,1.08.09,1.7.28,2.87l0,0c.28,1.22.07,2.79.42,3.41l0,1c.43,1.18.22,1.95.65,3.42l-.07-.17c.25,2,1,4.14,1,4.94a22.58,22.58,0,0,0,1,3.43c.06.22.13.44.19.66,0,0-.14-.12-.22-.25a30,30,0,0,0,4.34,9.05,31.49,31.49,0,0,0,2.62,3c9.08,9.55,22.43,12.93,33.15,13.19,1,0,1.92.06,2.87,0a36,36,0,0,0,8.38-1.05,21.46,21.46,0,0,0,3.12-1c.41-.17,1-.41,1.7-.73.05,0,.11,0,.38-.11.48-.26,1-.55,1.45-.86a10.88,10.88,0,0,0,5.05-5.81,10.56,10.56,0,0,0-.42-7.21A2.38,2.38,0,0,0,315.5,133.7ZM301.86,140a.25.25,0,0,1,.11,0c-.55,0-1.11,0-1.69-.06t0-.06h-.73l-.8-.09A19.91,19.91,0,0,1,301.86,140Zm-13.12-2.63-.67-.26.14,0ZM210.34,54l.75.23A4.54,4.54,0,0,1,210.34,54Z"/><path class="cls-1" d="M265.16,73.56c0,.06,0,.11,0,.15A.39.39,0,0,0,265.16,73.56Z"/><path class="cls-1" d="M193.78,50.75c0-.09,0-.19,0-.28S193.73,50.58,193.78,50.75Z"/><path class="cls-1" d="M221.18,55.2h0Z"/><path class="cls-1" d="M267,96c0-.13,0-.36-.09-.76A7.62,7.62,0,0,0,267,96Z"/><path class="cls-1" d="M213.74,54.85h0Z"/><path class="cls-1" d="M270.67,119.92c.21.51.38,1,.63,1.51-.44-1.06-1.09-2.94-1.2-3.06A15.88,15.88,0,0,0,270.67,119.92Z"/><path class="cls-1" d="M268.72,109.76c.08.2.16.52.19.44C268.76,109.2,268.68,109,268.72,109.76Z"/><path class="cls-1" d="M268.4,109.18c.15.17-.06-.84-.1-1.26A6.74,6.74,0,0,0,268.4,109.18Z"/><path class="cls-1" d="M268.3,107.92v-.19S268.29,107.82,268.3,107.92Z"/><path class="cls-1" d="M266.51,90.15c.18.34-.18-1.39-.15-1.88A10.07,10.07,0,0,0,266.51,90.15Z"/><path class="cls-1" d="M265.48,80.55a5.24,5.24,0,0,1,.07.74l.1-.27C265.6,80.57,265.48,80,265.48,80.55Z"/><path class="cls-1" d="M252.18,46.88a4.9,4.9,0,0,1-.65.54l.62-.38Z"/><path class="cls-1" d="M195,55.75c.49,1.09-.13,0,.25.83C195.2,56.43,195.45,56.64,195,55.75Z"/><polygon class="cls-1" points="228.97 66.85 229.26 66.81 229.04 66.64 228.97 66.85"/><path class="cls-1" d="M340.34,84.62a4.05,4.05,0,0,0,.23-.61,19.4,19.4,0,0,0-1.16-9.25.58.58,0,0,0-.05-.14c0-.09-.06-.19-.09-.28.08-.46.38.69.43.33-.19.08-.23-.5-.6-1.41v-.05c-.17-.38-.12-.64-.33-1l0,0c-.28-.41-.08-1.1-.42-1.25l0-.39c-.39-.36-.18-.73-.57-1.21l.07.05c-.16-.78-.8-1.44-.72-1.79a6.15,6.15,0,0,0-.65-1.25,1.8,1.8,0,0,1-.08-.21.22.22,0,0,1,.18,0c-.68-1.64-1.37-3.44-2.1-5.06-1.53-3.92-3.29-8.21-5.22-12.73a39.51,39.51,0,0,0-1.8-4.14l-.76-1.72s.06-.06,0-.16l-.39-.72q-2-4.48-4.18-9.13A20.34,20.34,0,0,0,321,30.47c.07.07.15.13.22.21-.25-.2-.44-.68-.25-.64l-.38-.42.14-.06c-.19-.24-.34-.46-.49-.68s-.31-.47-.47-.71a1.22,1.22,0,0,0-.83-.62,1.18,1.18,0,0,1,.31.32.89.89,0,0,0-.82-.1l-.09,0a1.05,1.05,0,0,0-.26.13l-.33.24c.14-.26,0-.18-.07-.24a1.67,1.67,0,0,1-.28.43,2.32,2.32,0,0,1,0-.44,1.14,1.14,0,0,1-.17.46,3.73,3.73,0,0,1-.32.44,7.75,7.75,0,0,0-.59.69l0-.1c-.62.6.2,0-.15.42s-.33,0-.69.28c-.54.7-1.17,2.09-1.72,2.92a20.47,20.47,0,0,0-.62,2.23c-.25.63-.23-.13-.38.55-.05-.1-.18,0-.28,0,.07.11-.48,1.18-.07.76-.4.9-.83,1.93-1.16,2.92.11-.33,0-.47-.19-.23a6.71,6.71,0,0,1-.59,2.13c.16,0,.26-.22.38-.08a1.89,1.89,0,0,1-.12.55c-.21.06-.44-.07-.73.66-.17-.29.51-1.23.13-1a4.35,4.35,0,0,1,.66-2c0-.73-.22.51-.39.3-.21.6-.2.92-.52,1.84.11,0,.24-.25.17.2-.09.9-.55,1-.63,1.16,0-.13.07-.29.09-.42a9.72,9.72,0,0,0-.43,1.32c-.35,0,.31-.93.21-1.2l-.36.33c-.36.87.15.33-.27,1.21l-.06-.15-.15.59c.1,0,.31,0,.47-.51.16.43-.13.46-.36,1.25.06.31.11-.33.27-.29s0,.51-.14.91c-.24.63-.3.26-.5.47,0-.13.18-.62.26-.53.13-.85-.46.21-.37-.37-.32.56-.12.61-.19,1,.09-.18.13.14.24,0,0,1.2-.57.54-.87,1.56.36-.1-.11,1.48.46.86a2.83,2.83,0,0,1-.21.82c-.09-.33-.31.39-.31-.15l-.14.37,0-.63c-.28.35-.66,1-.83,1.15-.11.55.25-.1.06.53,0-.25-.24.09-.34.36.28-.51.27.09.19.45-.2.53-.53.89-.55.8l0-.58c0,.44-.14.15-.23.57.06.15.12.46.21.64-.09.35-.32.54-.34.67l.1-.58c-.23.72-.35,0-.55.79l.07.25c-.08.13-.17.18-.17,0,.06.15-.12.55-.15.75h-.11c-.05.32,0,.79-.32,1.08.35-.2.15-.37.45-.84.29-.26,0,.57-.06.7-.23-.13-.32.76-.46,1.13-.17.18-.28.35-.39.46l.11.2c-.37,0-.21.76-.47,1.13,0-.25-.15-.27-.31,0,.39-.29.05.76.25.7-.37.71-.23-.29-.48-.13,0,.43-.44.77-.3,1.11.28-.51.11.14.17.29-.28.66-.06-.15-.33.29-.08.29,0,.73.2.32-.21.37-.16.9-.48,1.28-.22.12.26-.84.05-.63-.38.92.18.61-.12,1.49.23-.33.35.13.27.58-.45.93.08-.45-.26-.17l-.12.4c-.48.42,0-1.3-.38-.88l-.08.45c0-.12-.12-.31-.26-.17.14.18-.34,1-.33,1.08s.09-.36.18-.24c-.14.45,0,.75-.34,1.39,0-.42-.27,0-.29-.14-.2.31.14.18-.14.61l-.07-.08a29.48,29.48,0,0,0-2,5.56,7.14,7.14,0,0,0-1,1.62c.22-.37.16,0,.1.28l-.35.38a4.33,4.33,0,0,0-.42,1.83.31.31,0,0,1-.17.11c-.25.47,0,.55,0,.75l-.21.31.12.1c0,.52-.14,1.21-.35,1.11,0,.22,0,.42.13.17a7.81,7.81,0,0,0-.12,2.85c0-.44.11-.4.24-.44.23.13-.05.21.11.57-.08,0-.13.44-.23,0-.25,1.27.28,3,.71,4.48.13.3.13.19.24.32a11.92,11.92,0,0,0,1.22,3c0-.26.35-.08.65.41.48.45-.1.35.1.91a4.17,4.17,0,0,1,.64.82h0a3.22,3.22,0,0,1,.79,1l0,0a9.74,9.74,0,0,0,.54.93c.23,0,.67.76.92.83,0,.05,0,0,0,.1l.13-.07.37.59a1.8,1.8,0,0,1-.36-.19c.38.64.26.11.56.36s.28.4.39.63c-.19-.12-.21-.31-.31-.4-.28-.15.16.27.1.34s.23,0,.44.32.72.82.53.85c.25.16.44.42.63.54-.15-.23-.42-.63-.38-.73.17.17.5.51.5.61l-.16-.12c.16.12.56.69.45.32l.14.51c.21.07.52.46.79.77-.12.12-.46,0,0,.59l.53.42c.22.27.25.36.13.38.64,1,1.09.7,1.51,1.53-.38-.2-.21.07,0,.45,0,0,.11,0,.21.12,0-.15-.25-.12-.33-.46.05-.15.29.27.43.4.13.91,1.46,2.32,2,3.56.15-.2.37.47.59.66-.25,0,.43.62.49,1l.1-.29c.31.77,1,1,1,1.54.17.44-.23,0-.36-.19.09.68,1,1.36,1,2,.11,0,.16-.25.51.2a9.4,9.4,0,0,1,.34,1.22,1.74,1.74,0,0,1,.43.75c-.07,0-.16-.16-.24-.26a5.87,5.87,0,0,0,.89,1.46,14.81,14.81,0,0,0,.77,2c.38.27.42,1.1.71,1,0,0,0,.1,0,.14.19.21.45.34.6.65l-.22,0c-.13,0,0,.24.07.48l.2.43a.86.86,0,0,1,.1.34c-.06-.52.24.56.39.43a1.93,1.93,0,0,0,.35.35c.32.24.38.18.42.19a2.76,2.76,0,0,0,.6.07c.55-.08.22.22,0,.2a1.15,1.15,0,0,0,1-.32,1.08,1.08,0,0,0,.26-.37c-.09.15-.13.19-.06,0,0,0,.06,0,.1-.06s0,0,0,0l.27-.49a0,0,0,0,0,0,0c-.11.19-.2.37-.28.5a5,5,0,0,0,.3-.45.31.31,0,0,0,.08-.14,2.57,2.57,0,0,1,.27-.36l0,.22a1.83,1.83,0,0,0,.19-.35,1.85,1.85,0,0,0,.12-.33c.07-.22.11-.41.07-.42a22.7,22.7,0,0,0,1.81-3.17c0,.15,0,.19,0,0,.17-.34.29-.77.39-.75.14-.34.27-.23.58-.7,0,0-.08-.16-.15,0,.71-.68,1.06-1.91,1.82-2.8a1.27,1.27,0,0,0-.05.34,19.72,19.72,0,0,0,1.12-2.26c0,.1.08.12,0,.31a6.86,6.86,0,0,0,.68-1.2l0,.07c-.36.29,0-.44.22-.76h0c.34-.5.29-.57.63-1.08.28-.25-.15.29,0,.22s.91-1.06,1-1.15.12-.35.05-.36c.22-.43.24-.1.42-.38s.24-.85.37-1.27l0,0c.09,0,.38-.19.23.13a5.67,5.67,0,0,0,.69-1.33l1.37-1.73c-.08.2.32-.06.2.22a23.79,23.79,0,0,1,1.62-2c-.52.26.39-.8.32-1l.33-.47c.14-.09.17.08.34-.09.47-.86,1-1.59,1.49-2.35a0,0,0,0,1,0,.06A15,15,0,0,0,338,91.61l0,0s.09,0,0,.21c.27-.4.19-.45.15-.55l.24-.48v.17a9.15,9.15,0,0,0,.72-1.79c.08,0,0,.16,0,.27a9,9,0,0,0,.44-1.55c0-.11.09-.23.12-.34s.06.12,0,.31a1.64,1.64,0,0,0,.12-.93c0-.12.07-.25.1-.38s.22-.43.2-.32a6.55,6.55,0,0,1,.07-1.08C340.29,84.94,340.32,84.78,340.34,84.62ZM321.76,62.35l-.08-.1A.31.31,0,0,1,321.76,62.35Zm-5.91,32h0a.2.2,0,0,0,0,.09Zm1.24,2.23-.15-.26a.06.06,0,0,0,.05,0l-.11-.07s-.05-.09-.07-.14c.15,0,.37.32.31.47S317.1,96.56,317.09,96.57Zm.3.14-.21-.18.14-.06c-.26-.36-.29-.69-.61-1l0,.22a1.8,1.8,0,0,0-.26-.3l-.12-.23a.27.27,0,0,1,0-.13c.11.08.13,0,.2-.08s-.14-.07-.15-.15h.28c-.35.06-.45-.57-.55-.65h.06c-.09-.4-.1.13-.23-.11s.21-.2.2-.44c-.19-.34-.68-.86-.71-1.35a5.39,5.39,0,0,0-.72-.84c-.14-.28.25-.1,0-.34.1,0,.16-.09.23-.16-.11,0-.26-.54-.35-.2a6.81,6.81,0,0,0-.65-1.33c.09.14.25.1.26,0a1.72,1.72,0,0,1-.65-.83c-.14.08-.08.2-.25.23s-.16-.09-.19-.19c.12-.13.37-.24.2-.57.29,0,.26.58.42.3.27.05.58.64.53.83.36.19-.09-.24.14-.29-.15-.25-.32-.32-.56-.72-.11,0-.05.2-.23,0-.4-.25-.08-.53-.12-.63s.1.11.15.16c-.05-.28-.24-.3-.36-.56.24-.21.24.4.46.4l.1-.28c-.18-.41-.28,0-.42-.44h.13l-.2-.22a.24.24,0,0,0-.09.39c-.34,0-.14-.18-.37-.5-.21,0,.09.14-.06.22s-.25-.12-.36-.28.09-.23.13-.4c.05,0,.18.25.09.27.33.27.23-.32.46-.13-.05-.32-.23-.21-.36-.33,0,.09-.16,0-.18.13-.65-.25.14-.45-.17-.86-.21.23-.67-.39-.79.08a.65.65,0,0,1-.26-.31c.24,0,0-.27.31-.15l-.08-.16.33.13c0-.25,0-.61,0-.75-.21-.19-.13.17-.32-.08.14,0,.13-.16.06-.28.06.27-.25.14-.37,0s-.07-.51,0-.5l.28.14c-.22-.1,0-.11-.13-.26s-.33,0-.49,0-.06-.3-.11-.34l.24.18c-.22-.3.23-.22,0-.51h-.19c0-.08,0-.15.12-.11-.13,0-.21-.19-.29-.25l.08-.07c-.14-.1-.44-.16-.36-.42-.14.25.1.16.13.45s-.28-.14-.33-.18c.24-.12-.18-.36-.27-.52a2.35,2.35,0,0,0,0-.33l-.19,0c.26-.24-.26-.28-.28-.51.15,0,.26,0,.22-.2-.11.3-.44-.12-.55,0,0-.2.29-.14.41-.28-.05,0-.06,0-.07,0s.11-.07-.09,0-.17,0-.29,0,.12,0,.21-.07-.22-.14-.31,0c.06-.08-.13-.21.1-.33s0,.14.05.15,0,.08.05.07,0-.19-.09-.28a.37.37,0,0,1-.08-.4c-.16.13-.33-.15-.33-.38.28-.41,0,.23.26.15l.06-.19c.37-.12.16.72.48.58v-.23c.05.08.15.2.26.15-.15-.13.17-.46.14-.52s0,.18-.13.09c.06-.22-.14-.43.09-.7,0,.22.24,0,.29.14.13-.13-.16-.13,0-.31l.08.06a5.84,5.84,0,0,0,.79-2.71c.21-.06.34-.32.62-.69-.13.16-.16-.06-.13-.17l.26-.12c.2-.2.17-.58.17-.85a.26.26,0,0,1,.15,0c.21-.17,0-.27,0-.37l.18-.09-.11-.08c0-.24.17-.51.36-.4,0-.1,0-.2-.11-.12A2.66,2.66,0,0,0,313,71c-.13.17-.18.13-.31.09s.07-.07,0-.28c.07,0,.23-.11.21.1.48-.4.56-1.21.88-1.84,0-.14,0-.12-.06-.2.39-.32.37-.92.64-1.32-.13.06-.31-.18-.22-.42s.29,0,.49-.21a.9.9,0,0,1,.09-.48l0,0a.67.67,0,0,1,.17-.58v0c.07-.13.25-.25.3-.41-.14-.13.12-.46,0-.6s0,0,.08,0l-.14-.07.21-.26c0,.09.08.13.08.23.23-.28-.08-.16-.09-.36s.13-.2.23-.28c0,.12-.1.15-.1.22s.1-.12.18-.09-.13-.14,0-.28.17-.48.3-.38c0-.15.05-.29,0-.41-.07.1-.2.3-.3.28s.07-.33.15-.34v.1c0-.1.17-.38,0-.28l.28-.13c-.08-.13,0-.35.07-.53.16,0,.26.27.44,0l0-.35c.05-.15.1-.17.18-.11.31-.47-.18-.71.13-1.05.1.25.18.12.31,0a.11.11,0,0,1-.05-.14c-.11,0,.07.16-.11.24s0-.19,0-.29c.55-.18.63-1.14,1.07-1.63-.23,0,.06-.29,0-.42.19.11.07-.11.15-.17h0l-.14-.1-.06,0h0c.09-.06.06-.21.06-.37s0-.3.16-.17,0,.24,0,.33.15,0,.23-.13.2-.17.24.05c0-.13,0-.38.16-.45.14.19.22.53.17.56s.14,0,.13.15-.07,0-.1,0c0,.18.14.17.29.27-.08.23.25.66.33,1,.29.06.19.53.46.41,0,0,0,.07,0,.09s.35.08.45.21l-.2.05c-.23.09.19.43.1.53.08-.2.09.16.23.1L321,61c.19.24.1,0,.31.3s-.16.17-.18.1c0,.21.15.34.28.48,0-.06,0-.09,0-.05s0,0,0,.07a1,1,0,0,1,.13.16h0l-.12-.16a.55.55,0,0,0,.08.18s0,0,0,.05a.25.25,0,0,1,0,.16l-.16,0c.06.12.39.35.45.31a4.31,4.31,0,0,0,.92,1.46c-.07,0-.12,0,0,0s.33.25.26.31c.14.12,0,.19.11.43,0,0,.15,0,.1-.1,0,.52.66.83.8,1.39,0,0-.13-.07-.21-.08a4.48,4.48,0,0,0,.88.86c-.08,0-.13,0-.21,0,.14.25.35.52.54.56,0-.2-.08,0-.14-.08s.32,0,.38.18l0,0c.15.25.23.22.37.46s-.11-.11-.16,0,.21.65.21.71.17.1.22,0c.17.16-.07.16,0,.29l.65.29,0,0c0,.06-.07.25-.22.14a1.39,1.39,0,0,0,.58.47c.17.3.35.6.53.9-.11-.05-.13.21-.27.13a4.16,4.16,0,0,1,.57,1.08c.1-.34.33.26.53.23l.13.24c0,.09-.14.11-.12.22a7.7,7.7,0,0,1,.69,1.1.05.05,0,0,1-.05,0c.25.28.48.82.83,1.06l0,0s-.07,0-.15,0c.07.21.15.17.23.16l.12.22-.09,0c.24.2.18.54.5.75h0c-.05,0-.1,0-.16,0a6.9,6.9,0,0,0,.47.6s.05.09.08.14a.2.2,0,0,1-.18-.05c.05.23.21.23.32.32a1.62,1.62,0,0,0,.1.18c0,.08,0,.23,0,.19s.2.19.3.33l.15.29a1,1,0,0,0,0,.31c.17.34.35.68.53,1a1,1,0,0,1,.12.74,3.11,3.11,0,0,1-.37.69c-.26.43-.51.87-.73,1.32l-.13.18c-.28,0,.09-.38-.13-.34.18.11-.09.24-.3.66h0c-.08.19-.25.2-.32.41l.05,0c0,.26-.51.25-.36.5l-.22,0c.07.32-.27.24-.26.58l0,0c-.3.24-.24.77-.48.77a1.55,1.55,0,0,0-.24.63l-.07.08a.34.34,0,0,1-.09-.12c-.43.7-1,1.42-1.4,2.13-1.27,1.7-2.57,3.42-3.86,5.17a8.88,8.88,0,0,0-1.29,1.78l-.49.69s-.08,0-.1,0a3.78,3.78,0,0,1-.17.35c-.53.77-1.06,1.53-1.56,2.3a1,1,0,0,1-1.63,0c-.19-.31-.37-.63-.55-1l.14.08C317.27,97,317.23,96.73,317.39,96.71Zm3.17-67.08a.11.11,0,0,1,0,.06c-.11-.18-.25-.35-.37-.53l0,0-.2-.19-.19-.26A1.93,1.93,0,0,1,320.56,29.63Zm-3.6-.36-.18.22s0,0,0-.06Zm3.75,89.16a1.84,1.84,0,0,1,.13-.25A2.05,2.05,0,0,1,320.71,118.43Z"/><path class="cls-1" d="M315.05,90.83c0-.11.06-.25-.09-.33,0-.08.18,0,.13-.13s-.24.21-.18.46c0,0,0,0,0,0A.13.13,0,0,1,315.05,90.83Z"/><path class="cls-1" d="M323.76,66l0,0S323.72,66,323.76,66Z"/><path class="cls-1" d="M312.71,85.78s0,0-.06-.1Z"/><path class="cls-1" d="M315.18,91a.34.34,0,0,0-.13-.12A.15.15,0,0,0,315.18,91Z"/><path class="cls-1" d="M321.38,61.87v0Z"/><path class="cls-1" d="M314.89,90.86l0,0Z"/><path class="cls-1" d="M315,91s0,.14,0,.14.1,0,.14,0S315.06,91.08,315,91Z"/><path class="cls-1" d="M314.3,89.6l.44.45C314.63,89.87,314.39,89.58,314.3,89.6Z"/><path class="cls-1" d="M313.93,88c.06,0,.11.06.15,0S313.94,87.84,313.93,88Z"/><path class="cls-1" d="M313.66,87.72a.35.35,0,0,0,0,.28C313.85,88,313.59,87.76,313.66,87.72Z"/><path class="cls-1" d="M312.33,84.8c.16,0-.17-.2-.14-.31C312.13,84.61,312.29,84.73,312.33,84.8Z"/><path class="cls-1" d="M311.37,83.33c.05,0,0,.06.06.11l.09-.1C311.47,83.28,311.36,83.22,311.37,83.33Z"/><polygon class="cls-1" points="318.31 58.13 318.25 58.16 318.31 58.25 318.31 58.13"/><path class="cls-1" d="M324.18,66.81c.11.17-.11,0,0,.18C324.16,67,324.32,66.93,324.18,66.81Z"/><polygon class="cls-1" points="328.23 72.38 328.05 72.46 328.08 72.51 328.23 72.38"/><path class="cls-1" d="M320,119.68l.05-.07h0Z"/><path class="cls-1" d="M325.57,110.73l-.05.09S325.56,110.8,325.57,110.73Z"/><path class="cls-1" d="M308,46.59a1.37,1.37,0,0,0-.08.26A1.44,1.44,0,0,0,308,46.59Z"/><path class="cls-1" d="M327.36,107.58a1.19,1.19,0,0,0,.07-.23C327.18,107.62,327.4,107.47,327.36,107.58Z"/><path class="cls-1" d="M312.54,35.81h0S312.55,35.8,312.54,35.81Z"/><path class="cls-1" d="M312.43,35.64c-.11.2-.31.34-.32.65-.11.1-.08-.25-.21.05s.34,0,.59-.51l.05,0C312.47,35.82,312.42,35.78,312.43,35.64Z"/><path class="cls-1" d="M312.43,35.64a.54.54,0,0,0,.07-.35A1.3,1.3,0,0,0,312.43,35.64Z"/><path class="cls-1" d="M327.36,107.58Z"/><path class="cls-1" d="M312.79,34.94c-.11.11-.08.3-.14.46,0,0,.17-.18.15-.21S312.73,35.11,312.79,34.94Z"/><path class="cls-1" d="M311.71,37.28a3.91,3.91,0,0,0-.29,1.27Z"/><path class="cls-1" d="M309.83,41.56c0-.09,0-.22-.05-.21C309.64,41.72,309.65,41.81,309.83,41.56Z"/><path class="cls-1" d="M309.7,42.3a1.35,1.35,0,0,0,.25-.43C309.86,41.75,309.77,42.15,309.7,42.3Z"/><path class="cls-1" d="M309.7,42.3l-.05.05S309.68,42.33,309.7,42.3Z"/><path class="cls-1" d="M306.82,49.3c.16-.12.22-.5.28-.67C307,48.45,307,49.15,306.82,49.3Z"/><path class="cls-1" d="M305.94,52.13a.88.88,0,0,1,.09-.26l-.15.05C305.83,52.08,305.82,52.31,305.94,52.13Z"/><polygon class="cls-1" points="311.28 107.84 311.51 108.13 311.39 107.84 311.28 107.84"/><path class="cls-1" d="M326.65,109.18c.23-.37.09.08.26-.2C326.87,109,326.8,108.84,326.65,109.18Z"/><polygon class="cls-1" points="334.77 97.15 334.84 97.06 334.64 97 334.77 97.15"/><path class="cls-1" d="M168.32,70.78v0Z"/><path class="cls-1" d="M184.13,70.18l0-.05c-.06-.5.07-.78,0-1.32l0,0c-.17-.57.22-1.28-.07-1.57l.13-.45c-.26-.54,0-.89-.19-1.57l0,.08c.07-.94-.34-1.93-.16-2.3a8.47,8.47,0,0,0-.23-1.66,2.44,2.44,0,0,0,0-.27c.06,0,.12.06.16.13-.13-2.14-.13-4.45-.14-6.58,0-1.07.1-2.13.19-3.2-.19-4.29.2-8.67.28-13,0-.54.06-1.08.07-1.61a24.32,24.32,0,0,0-.24-4.11c0-.28,0-.56-.07-.84s-.1-.82-.16-1.23c0,0,.08,0,0-.19-.08-.34-.15-.69-.23-1a72.28,72.28,0,0,0-2.88-11.53,26.49,26.49,0,0,0-1.05-2.62,2.14,2.14,0,0,1,.13.19c-.18-.3-.33-.72-.15-.65l-.39-.55.14,0a13.36,13.36,0,0,0-1.6-2.61l.12.44a5.17,5.17,0,0,0-.42-.51c-.19-.28-.4-.56-.61-.83a1.26,1.26,0,0,1-.13-.26c.22.21.15,0,.21-.07a3.08,3.08,0,0,1-.39-.35l.41.07c-.46,0-1.33-1.31-1.57-1.51l.1,0c-.6-.84,0,.23-.44-.28s0-.34-.3-.78-1-.79-1.5-1.25a11.59,11.59,0,0,1-1.6-1.26l-.6-.38-.66-.31c-.43-.19-.86-.38-1.25-.53-.71-.4.18-.23-.62-.5.12,0,.05-.18,0-.28s-1.43-.64-.91-.17a13.8,13.8,0,0,0-1.74-.75c-.62-.19-1.25-.38-1.86-.54.4.11.56,0,.23-.2a15.77,15.77,0,0,1-2.69-.34c0,.17.34.23.2.37a3.24,3.24,0,0,1-.67,0c-.13-.18-.06-.44-1-.51.28-.27,1.63.16,1.23-.14a6.45,6.45,0,0,1,2.56.37c.44,0,.28,0,0-.12s-.59-.13-.49-.22c-.78-.12-1.16-.1-2.37-.24,0,.11.38.16-.19.21a2.41,2.41,0,0,1-1.61-.28l.54,0a6.29,6.29,0,0,0-1.73,0c-.11-.15.2-.18.57-.19a2.31,2.31,0,0,0,.93,0L158.94,0c-1.2-.06-.33.24-1.55.21l.14-.12-.76.11c0,.11.17.28.82.22-.41.32-.6.07-1.62.19-.31.19.44,0,.47.12s-.58.17-1.07.32c-.82.15-.45-.11-.8-.16.15-.05.79-.19.73-.08,1-.36-.5-.27.2-.52-.82,0-.76.24-1.16.37.25,0-.08.19.11.22-1.26.7-1-.22-2.22.27.34.2-1.56.93-.54.94a5.28,5.28,0,0,1-.94.42c.24-.34-.58.1-.1-.34l-.43.2a6.72,6.72,0,0,1,.57-.51c-.54.06-1.41.35-1.71.38-.61.39.28.08-.44.47.21-.21-.28-.07-.61.09.7-.23.12.21-.21.53-.6.39-1.18.54-1.12.44l.5-.52c-.37.41-.24.06-.66.41-.07.18-.26.5-.32.71-.35.28-.7.37-.81.49.17-.18.34-.37.52-.53-.76.59-.37-.13-1.1.55l-.1.29c-.16.11-.28.12-.18,0,0,.18-.47.54-.61.74l-.12,0c-.25.33-.45.85-.93,1.06.45-.11.34-.35.91-.76.44-.17-.36.6-.45.73-.16-.22-.73.73-1,1.09-.26.15-.45.31-.6.4v.26c-.38-.08-.55.78-1,1.15.08-.28,0-.34-.32-.06.51-.26-.26.86,0,.84-.65.74-.13-.37-.44-.24a1.82,1.82,0,0,1-.42.65,2,2,0,0,0-.22.29.82.82,0,0,0-.13.43c.6-.88,0,.22.1.46-.18.6-.15.56-.19.45s0-.27-.15.19.34,1.21.3.42a3.11,3.11,0,0,0,1,1.94c.09.16-.25,0-.49-.31s-.4-.59-.34-.35c.49.76.82.75,1,.78a9.31,9.31,0,0,1,1.08.15c-.26-.09-.25-.19-.09-.25a1.93,1.93,0,0,1,.68-.12c1.2.28-.55,0-.12.29l.49.05c.63.39-1.51.21-.9.54h.54c-.13.06-.32.17-.12.28.17-.16,1.24.16,1.35.13s-.44,0-.33-.13a5.69,5.69,0,0,1,1.72,0c-.5.05.15.25-.06.31.42.13.16-.17.76,0l-.08.09a19.34,19.34,0,0,0,3.81.24,8.69,8.69,0,0,0,1-.12,8.3,8.3,0,0,0,.95-.23c.54-.16,1-.35,1.5-.53a14.2,14.2,0,0,0,2.16,0c-.48,0,0-.16.24-.2l.53.15a9.6,9.6,0,0,0,2-.11.27.27,0,0,1,.15.15c.53.17.57,0,.79,0l.33.19.1-.11c.57,0,1.23.32,1.1.48.21,0,.42.05.19-.09.23.15.66.39,1.14.64l.71.44c.22.16.42.33.62.47-.31-.33-.24-.36-.18-.49.25-.08.13.18.52.33,0,.07.23.42-.17.16.37.54.84,1.12,1.29,1.8a9.72,9.72,0,0,1,1.12,2.26c.15.31.15.2.26.34.1,1.09.62,2.29.72,3.51,0-.29.37,0,.48.71.3.69-.21.33-.22,1a5.14,5.14,0,0,1,.28,1.18l0,0a4.17,4.17,0,0,1,.28,1.5l0-.08c0,.39,0,.86.05,1.26.2.16.22,1.17.4,1.39,0,0,0,0-.06.09l.15,0v.82a2.34,2.34,0,0,1-.21-.42c0,.87.17.27.3.72s0,.57,0,.87c-.1-.24,0-.45,0-.59-.16-.34,0,.37-.09.39s.19.16.2.61.17,1.28,0,1.19c.12.32.14.71.23,1,0-.32,0-.89.09-1a3.45,3.45,0,0,1,.08.94l-.06-.23c.06.23.09,1.06.2.62l-.16.61a4.64,4.64,0,0,1,.25,1.29c-.16,0-.37-.35-.34.57l.22.77c.05.41,0,.52-.09.46,0,1.41.56,1.42.47,2.53-.22-.46-.22-.06-.25.44,0,0,.1.06.12.27.08-.15-.15-.29,0-.68.12-.12.1.45.16.68-.37,1,0,3.29-.13,4.9.23-.12.08.71.18,1-.25-.1,0,.9-.09,1.34l.24-.25c-.13,1,.37,1.6.08,2.2-.07.56-.18-.18-.22-.41-.26.75.21,2-.09,2.63.1.07.26-.16.35.51a11.35,11.35,0,0,1-.31,1.48,2.54,2.54,0,0,1,0,1c-.06,0-.06-.25-.09-.4a8.51,8.51,0,0,0,.09,2,19.5,19.5,0,0,0-.27,2.62c.21.49-.14,1.41.15,1.48,0,0-.07.09-.09.14a4.12,4.12,0,0,1,.25,1l-.19-.14c-.24-.11-.09,1.17-.21,1.29.18-.35,0,.46.12.5l0,.49c0,.78.1.1.09,1.06,0,.54-.24.17-.2,0a4.31,4.31,0,0,0-.06,1.39c0-.17,0-.23.06-.07s0,.06-.06.12,0,.35,0,.53h0a4.29,4.29,0,0,1,0-.51,2.29,2.29,0,0,0,0,.5s0,.07,0,.14a1.79,1.79,0,0,1-.06.4l-.15-.14a3.93,3.93,0,0,0,.18,1.25,29,29,0,0,0-.11,4.37c0-.17-.08-.19,0,0,0,.46.12,1,0,1,0,.45-.12.41-.16,1.09,0,0,.14.1.13-.09-.28,1.16.06,2.68-.14,4.08,0-.11-.07-.32-.13-.46a26,26,0,0,0,.25,3c-.07-.11-.14-.08-.17-.33a10.34,10.34,0,0,0,.08,1.65v-.09c.14-.53.26.42.22.9h0a5.85,5.85,0,0,0,.29,1.52c0,.45-.13-.37-.18-.18-.22.24.29,1.7.34,1.84s.22.37.28.32c.26.52-.05.3.11.67.31.42.63.82,1,1.22l0,.08c0,.07,0,.5-.23.13a6.76,6.76,0,0,0,1,1.53c.25.52.5,1,.75,1.52a2.75,2.75,0,0,0,.57.76c-.29-.19,0,.37-.29.15a4.06,4.06,0,0,0,1.32.82,3.33,3.33,0,0,0,1.8.17c-.38-.07,0-.15.34-.32s.7-.43.67-.54a3.89,3.89,0,0,0,.39-.32l.1-.12c.19-.09.16.08.39-.09.72-.92,1.5-1.7,2.17-2.52,0,0,0,0,0,.06a24.85,24.85,0,0,0,2-2.78l0,0s.09,0,0,.24c.4-.41.33-.48.32-.59l.4-.5-.05.19c.34-.66,1.06-1,1.25-1.93.07,0,0,.19,0,.31a5.58,5.58,0,0,0,.49-1.87l.06-.43c.06,0,.09.13.09.37a2.33,2.33,0,0,0,0-1.15c0-.14,0-.28,0-.42s.15-.56.15-.43a6.94,6.94,0,0,1,0-1.27c0-.21,0-.41,0-.61s.11-.38.21-.73A63.66,63.66,0,0,0,184,72.06c0-.2,0-.39,0-.59.21-.51.17.93.32.52C184.12,72,184.26,71.34,184.13,70.18Zm-15.79,2.21v-.32A1.7,1.7,0,0,1,168.34,72.39Zm10.74-58.14s0,0,0,0c-.11-.22-.23-.44-.35-.66l0,0-.12-.15c-.09-.14-.17-.29-.25-.43A2.77,2.77,0,0,1,179.08,14.25Zm-3.66-5.16L175.36,9h0Z"/><path class="cls-1" d="M154.34.67a2.41,2.41,0,0,0-.34.08A1.71,1.71,0,0,0,154.34.67Z"/><path class="cls-1" d="M179.7,15.46l.08.12Z"/><path class="cls-1" d="M168.67,2.93a1,1,0,0,0,.41.13A2,2,0,0,0,168.67,2.93Z"/><path class="cls-1" d="M168,87.32Z"/><path class="cls-1" d="M168,87.32a1.42,1.42,0,0,0,.07.28C168.12,87.17,168,87.46,168,87.32Z"/><path class="cls-1" d="M168.67,2.93a2,2,0,0,0-.8-.42c-.13-.13.3,0-.08-.23-.38,0,.07.37.64.68l0,0C168.45,2.92,168.5,2.89,168.67,2.93Z"/><path class="cls-1" d="M167.82,83v-.12S167.8,82.91,167.82,83Z"/><path class="cls-1" d="M168.46,3s0,0,0,.07S168.49,3,168.46,3Z"/><path class="cls-1" d="M169.18,3.4c.11,0,.1-.06.3.05-.12-.14-.34-.16-.53-.26C169,3.24,169.15,3.42,169.18,3.4Z"/><path class="cls-1" d="M165.07,1.65c.53.11,1.07.17,1.58.33A4.51,4.51,0,0,0,165.07,1.65Z"/><path class="cls-1" d="M161.05.37c.1,0,.27,0,.24-.1C160.79.21,160.69.26,161.05.37Z"/><path class="cls-1" d="M160.12.44a1.78,1.78,0,0,0,.6.12C160.83.44,160.31.47,160.12.44Z"/><path class="cls-1" d="M160.12.44l-.08,0S160.07.43,160.12.44Z"/><path class="cls-1" d="M150.7,1.53a2.29,2.29,0,0,0,.88-.26C151.7,1.08,151,1.53,150.7,1.53Z"/><path class="cls-1" d="M147.72,3.17l-.17,0c-.18.13-.37.33-.13.23A1,1,0,0,1,147.72,3.17Z"/><polygon class="cls-1" points="168.74 52.45 168.64 52.38 168.69 52.82 168.74 52.45"/><path class="cls-1" d="M167.72,85.25c0,.53-.12,0-.12.38C167.62,85.56,167.77,85.69,167.72,85.25Z"/><path class="cls-1" d="M176.12,98l.11-.1-.2-.08Z"/></g></g></svg>