<svg xmlns="http://www.w3.org/2000/svg" viewBox="0 0 212.31 82.44"><defs><style>.cls-1{fill:#f15a29;}</style></defs><g id="Layer_2" data-name="Layer 2"><g id="Layer_1-2" data-name="Layer 1"><path class="cls-1" d="M85,22.39a17.24,17.24,0,0,0,4.18,1.31c0,2.53,0,5,0,7.48,0,8.9-.16,17.81.16,26.7a29.91,29.91,0,0,0,2.33,9.24c1,2.69,3.16,3.57,5,2.66,2.11-1,2.58-2.83,2-5-3.54-13.53-1-27.26-1.86-40.85,1.43-.53,2.61-.67,3.36-1.32a23.6,23.6,0,0,0,2.77-3.4A24.4,24.4,0,0,0,99.79,17a11.63,11.63,0,0,0-3-.67c-.44-2-.48-3.92-1.25-5.45a30.26,30.26,0,0,0-4.35-6.5c-1.07-1.21-3.11-1.67-4.2,0a4.32,4.32,0,0,0,0,3.76c1.42,2.55,2.51,5.05,2,8.25a13.36,13.36,0,0,0-3.6.81c-1,.52-2.19,1.58-2.26,2.49S84.13,21.83,85,22.39Z"/><path class="cls-1" d="M1.74,14.32c1.36.93,2.43.06,3.29-1.48a10.1,10.1,0,0,1,3.5-3.67c10.43-6,23-1.42,27.77,10.11,4.39,10.53-.93,20.56-12.75,23.25-.36-2.07-.84-4.12-1.07-6.19-.45-4.25-.63-8.53-1.24-12.75a2.6,2.6,0,0,0-.59-1.2,9.19,9.19,0,0,0-.66-.76c-.36-.38-.73-.75-1-1.14l-.38.32c-.55.42-1.18.81-1.66,1.25a2.89,2.89,0,0,0-.59.69,1.28,1.28,0,0,0-.16.38,22,22,0,0,0-.43,6.35c.18,4.58.54,9.15.82,13.69a4.63,4.63,0,0,1-1.31.26c-4.46-1-6-3.89-5.75-8.25.05-1.15-.81-3.12-1.67-3.39-2-.63-2.59,1.31-3.12,2.83C2.82,40,4.87,45.32,10.18,48.2a70.46,70.46,0,0,0,7.61,3.07c.46,4.18.91,8.41,1.4,12.63.16,1.4.07,3,.75,4.12s2.15,2.18,3.19,2.1A4.27,4.27,0,0,0,26,67.57a11.33,11.33,0,0,0,.08-4.72c-.43-4.2-1-8.4-1.45-12.19,4-2.28,7.75-4,11.08-6.35,6.32-4.4,9.24-10.75,8.93-18.39-.4-9.78-4.86-17.43-13.19-22.52A23.89,23.89,0,0,0,3.55,5.8,13.54,13.54,0,0,0,.06,11C-.26,11.8.79,13.68,1.74,14.32Z"/><path class="cls-1" d="M104.53,78.43c-.75.35-1.08,1.61-1.61,2.46,1,.54,2,1.6,3,1.55,3.64-.18,6.22-2.47,8.4-5.12a29.63,29.63,0,0,0,6.5-14.45c1-6.47,1.3-13,1.85-19,1.36-2.07,3.3-3.78,3.53-5.7.36-3-3.16-1.95-4.92-3.22-.13-1.68-.39-3.43-.4-5.19,0-8.4-2.09-17.24,5.93-23.77,1.67-1.37.24-4.09-2.08-4.13a8.14,8.14,0,0,0-4,1.15,12,12,0,0,0-6,7.84,54.85,54.85,0,0,0-1.3,11.05c0,5.12.47,10.23.75,15.44a35.62,35.62,0,0,0-4.54,1.92c-.65.38-1.42,1.5-1.28,2.07a3.48,3.48,0,0,0,1.84,2.24,24.43,24.43,0,0,0,4.9.62,50.23,50.23,0,0,1-1.28,21.23C112.26,70.81,110.12,75.81,104.53,78.43Z"/><path class="cls-1" d="M158.54,61.29a9.84,9.84,0,0,0,5.81,8.37,3.83,3.83,0,0,0,5.17-1.39c1.19-1.8,1.52-4-.65-5.08-2.65-1.31-2.69-3.5-2.87-5.77-.7-9.39-1.25-18.79-2.1-28.16a62.88,62.88,0,0,0-2.13-11.46,7.12,7.12,0,0,0-6.46-5.55,5.39,5.39,0,0,0-3.56,1.47c-.32.3.34,2.46,1.1,3,3.05,2.12,3.53,5.21,3.64,8.45S157.59,52.66,158.54,61.29Z"/><path class="cls-1" d="M205.06,39.28a6.32,6.32,0,0,0-6.92-.91,15.66,15.66,0,0,0-9.23,9.69,17.27,17.27,0,0,0-.29,9.35,40.31,40.31,0,0,0,1.49,5.32c1.63,4.29,4.68,7.17,9.51,7.38,5,.22,8.38-2.5,10.69-6.66C214.46,56,211.9,44.43,205.06,39.28Zm-.63,21.09c-1,1.38-2.93,2.81-4.52,2.9-1.24,0-3-1.68-3.77-3.06-3.1-5.63-1.7-12.12,3.57-17,4,3.29,6.13,7.24,6,12.12A9,9,0,0,1,204.43,60.37Z"/><path class="cls-1" d="M148.32,43.73c-5.1-7.95-9.69-8.42-17.09-1.11a9.31,9.31,0,0,0-1.77,2.65,19.87,19.87,0,0,0,1.68,20.32c3.65,5.42,10.42,6,15.39,1.63a15.68,15.68,0,0,0,5.22-11A21.75,21.75,0,0,0,148.32,43.73Zm-4.81,16.91c-2.22,4-5.95,3.59-8.06-.5-3.08-6-1.93-12,3.57-17a14,14,0,0,1,6,10.46A13.14,13.14,0,0,1,143.51,60.64Z"/><path class="cls-1" d="M61.19,55.29c-.93-6.18-5-9.45-10.28-11.85-3.11-1.43-5.79-.87-8.31,1.32-6.22,5.4-6.9,16-1.4,22.08a8.81,8.81,0,0,0,7.15,3.27C57.1,70,62.44,63.57,61.19,55.29Zm-11.3,8.3c-2.82.46-4.41-.43-5.7-3.51-1.93-4.59-.82-8.58,3-12.33,4.61,2.29,8.42,4.67,8,10.33C55,61.35,53.38,63,49.89,63.59Z"/><path class="cls-1" d="M69,42.89c-.48-.61-1.56-1.42-2-1.24a4.18,4.18,0,0,0-2,2.08,4.78,4.78,0,0,0,0,2.62c1.34,6.41,2.64,12.84,4.17,19.2.9,3.74,2.32,5.09,4.21,4.41,3.08-1.11,1.91-3.69,1.8-5.9-.18-3.7-.53-7.42-.36-11.12.17-3.53,1.43-6.57,5.56-7.39,1.85-.37,3.33-1.35,2.59-4-5-1.52-9.18-.4-12.46,4.49A18.62,18.62,0,0,0,69,42.89Z"/><path class="cls-1" d="M182.15,51.92c-.41-2.62-.42-5.35-1.16-7.87-.42-1.41-2-2.5-3.68-4.58-1.31,2.35-2.55,3.68-2.79,5.17a44.44,44.44,0,0,0,1.55,20.48,9.61,9.61,0,0,0,1.78,3.22c1.37,1.63,3.17,2.36,5.2,1.27s1.69-2.76,1.32-4.64C183.51,60.65,182.84,56.28,182.15,51.92Z"/><path class="cls-1" d="M174.22,33.59a2.45,2.45,0,0,0,2.88,2.89c.92-.12,2.45-1.42,2.4-2.06-.12-1.26-1.16-2.43-2.36-4.63C175.65,31.66,174.37,32.55,174.22,33.59Z"/></g></g></svg>