<svg xmlns="http://www.w3.org/2000/svg" viewBox="0 0 233.16 217.78"><defs><style>.cls-1{fill:#f28705;}.cls-2{opacity:0.69;}.cls-3{fill:#bbd6d9;}.cls-4{fill:#fff;}</style></defs><g id="Layer_2" data-name="Layer 2"><g id="fullLogo"><path class="cls-1" d="M233.16,83.53l-16.84,2-2,16.85-2-16.85-16.85-2,16.85-2,2-16.84,2,16.84Z"/><path class="cls-1" d="M176.33,215.22a108.89,108.89,0,1,1,0-212.66,108.9,108.9,0,0,0,0,212.66Z"/><g class="cls-2"><circle id="_5" data-name="5" class="cls-3" cx="106.14" cy="88.09" r="41.6"/><circle id="_5-2" data-name="5" class="cls-3" cx="54.28" cy="115.93" r="41.6"/><circle id="_5-3" data-name="5" class="cls-3" cx="162.78" cy="115.93" r="41.6"/><circle id="_5-4" data-name="5" class="cls-3" cx="106.14" cy="129.69" r="41.6"/><circle id="_7" data-name="7" class="cls-3" cx="204.38" cy="123.61" r="15.89"/><circle id="_7-2" data-name="7" class="cls-3" cx="15.89" cy="115.93" r="15.89"/></g><path class="cls-4" d="M23,167.44,28.63,166v-60L23,104.67v-1.41H35.19q8.43,0,8.43,8.44v15a15.11,15.11,0,0,1,2.91-3,14.8,14.8,0,0,1,9.27-3.1,19.84,19.84,0,0,1,9.42,2.21,17.24,17.24,0,0,1,6.51,5.76,13.41,13.41,0,0,1,2.34,7.49v30l5.62,1.41v1.4H67.51q-8.43,0-8.43-8.43V136.05q0-5.9-2.11-9t-4.92-3.14q-3.55,0-6.37,3.75a15.23,15.23,0,0,0-2.06,3.75V166l5.62,1.41v1.4H23Z"/><path class="cls-4" d="M99.55,166.64A17.25,17.25,0,0,1,93,160.88a13.42,13.42,0,0,1-2.34-7.5v-30L85.08,122v-1.4H97.25c5.63,0,8.43,2.81,8.43,8.43v24.35c0,3.94.71,7,2.11,9s3,3.14,4.92,3.14c2.31,0,4.4-1.24,6.28-3.74a25,25,0,0,0,2.15-3.75V123.41L115.52,122v-1.4h26.23V122l-5.62,1.41v44.5h-.94q-6.83,0-10.39-3.75a9.53,9.53,0,0,1-2.25-3.75,21.52,21.52,0,0,1-3.09,4.22,14.25,14.25,0,0,1-10.5,4.21A19.83,19.83,0,0,1,99.55,166.64Z"/><path class="cls-4" d="M191.64,164.63v-25.3a19.78,19.78,0,0,0-2.76-10.44,18.73,18.73,0,0,0-8.06-7.12,28.5,28.5,0,0,0-12.6-2.58q-8.62,0-13,3c-2.9,2-4.36,4.44-4.36,7.3a6.62,6.62,0,0,0,7,7,20,20,0,0,0,2.53-.19l1.22-.28V122l1.31-.47a10.79,10.79,0,0,1,3.37-.47,8.62,8.62,0,0,1,7.78,3.94q2.53,3.93,2.53,14.33v2.81a157.15,157.15,0,0,0-17.9,2.06c-3,.5-5.77,1.07-8.33,1.69a13.58,13.58,0,0,0-1.69,3.09,17.57,17.57,0,0,0-1.59,7.22,11.08,11.08,0,0,0,4.5,9.08q4.49,3.56,12.83,3.56A14.22,14.22,0,0,0,175,164.63a21.13,21.13,0,0,0,3.09-4.22,10,10,0,0,0,2.06,3.56q3.09,3.47,8.72,3.47h8.43V166Zm-15-6.56a24.06,24.06,0,0,1-2.16,3.75q-2.81,3.74-6.27,3.74a4.66,4.66,0,0,1-4-2.53q-1.59-2.52-1.59-7.77a27.73,27.73,0,0,1,.93-7,18.6,18.6,0,0,1,.94-2.81c.69-.06,2-.22,3.93-.47a70.34,70.34,0,0,1,8.25-.47Z"/><path class="cls-4" d="M23,97.18l5.62-1.4V54.56L23,53.15v-1.4h8.43a11.09,11.09,0,0,1,8.72,3.56,12.58,12.58,0,0,1,2.06,3.46,17.59,17.59,0,0,1,3-4.21,13.29,13.29,0,0,1,9.65-4.22,18.74,18.74,0,0,1,9.56,2.39,16.54,16.54,0,0,1,6.37,6.51,19.06,19.06,0,0,1,3-4.4,13.09,13.09,0,0,1,9.65-4.5,19.21,19.21,0,0,1,8.94,2.06A15.48,15.48,0,0,1,98.57,58a14.6,14.6,0,0,1,2.2,7.78v30l5.62,1.4v1.41H94.21q-8.43,0-8.43-8.43V65.8c0-4.06-.63-7.11-1.87-9.14s-2.66-3-4.22-3q-2.72,0-5.53,3.75a27.13,27.13,0,0,0-2,3.74V95.78l5.63,1.4v1.41H51.58V97.18l5.62-1.4v-30q0-6.09-1.87-9.14c-1.25-2-2.65-3-4.22-3q-2.72,0-5.52,3.75a26.09,26.09,0,0,0-2,3.74V95.78l5.62,1.4v1.41H23Z"/><path class="cls-4" d="M149.29,95a11.09,11.09,0,0,1-4.49-9.09,17.49,17.49,0,0,1,1.59-7.21,13.41,13.41,0,0,1,1.68-3.1c2.56-.62,5.35-1.18,8.34-1.68a154.91,154.91,0,0,1,17.9-2.06V69.08c0-6.94-.85-11.71-2.53-14.34s-4.28-3.93-7.78-3.93a10.79,10.79,0,0,0-3.37.47l-1.31.47v14l-1.22.28a20,20,0,0,1-2.53.19,6.61,6.61,0,0,1-7-7c0-2.87,1.46-5.31,4.36-7.31s7.23-3,13-3a28.44,28.44,0,0,1,12.6,2.57,18.73,18.73,0,0,1,8.06,7.12,19.72,19.72,0,0,1,2.76,10.45V94.37l5.63,1.41v1.4h-8.44q-5.61,0-8.71-3.46a10.06,10.06,0,0,1-2.06-3.56,20.68,20.68,0,0,1-3.09,4.21,14.25,14.25,0,0,1-10.49,4.22Q153.79,98.59,149.29,95Zm22.86-3.47a23.6,23.6,0,0,0,2.16-3.75V74.23a70.34,70.34,0,0,0-8.25.47c-1.94.25-3.25.4-3.93.47a16.87,16.87,0,0,0-.94,2.81,27.68,27.68,0,0,0-.94,7q0,5.25,1.6,7.78a4.68,4.68,0,0,0,4,2.53C168.18,95.31,170.28,94.06,172.15,91.56Z"/><path class="cls-4" d="M112.48,97.18l5.62-1.4V54.56l-5.62-1.41v-1.4h12.18q8.43,0,8.43,8.43v35.6l5.62,1.4v1.41H112.48Z"/><g class="cls-2"><path class="cls-3" d="M43.94,199.48a6.54,6.54,0,0,1-1.86-.25,5.68,5.68,0,0,1-1.47-.69,14.11,14.11,0,0,1-1.27-1l1.26-1.47a6.93,6.93,0,0,0,1.53,1.08,3.84,3.84,0,0,0,1.74.39,4.13,4.13,0,0,0,1.82-.36,2.58,2.58,0,0,0,1.13-1,2.92,2.92,0,0,0,.4-1.44l0-2.57.18.42a3.62,3.62,0,0,1-1.49,1.66,4.78,4.78,0,0,1-2.61.67,4.57,4.57,0,0,1-2.38-.66,5.14,5.14,0,0,1-1.76-1.8,5,5,0,0,1-.66-2.55,5.11,5.11,0,0,1,.68-2.64A5,5,0,0,1,41,185.55a4.84,4.84,0,0,1,2.47-.66,5.08,5.08,0,0,1,2.3.52,3.61,3.61,0,0,1,1.54,1.32l-.14.38.21-1.83h2v9.55a4.41,4.41,0,0,1-.65,2.34,4.67,4.67,0,0,1-1.88,1.68A6.26,6.26,0,0,1,43.94,199.48Zm-3.27-9.55a3.28,3.28,0,0,0,3.27,3.3,3.73,3.73,0,0,0,1.53-.31,3.21,3.21,0,0,0,1.13-.86,3.29,3.29,0,0,0,.64-1.21V189a2.9,2.9,0,0,0-.69-1.19,3.58,3.58,0,0,0-1.14-.81,3.67,3.67,0,0,0-1.47-.29,3.24,3.24,0,0,0-1.63.42,3.21,3.21,0,0,0-1.64,2.85Z"/><path class="cls-3" d="M55,185.28l.2,2.75-.09-.39a4.23,4.23,0,0,1,1-1.46,4.89,4.89,0,0,1,1.47-.94,4,4,0,0,1,1.33-.35l-.09,2.16a3.06,3.06,0,0,0-1.92.4,3.65,3.65,0,0,0-1.28,1.28,3.3,3.3,0,0,0-.47,1.7v4.33H53v-9.48Z"/><path class="cls-3" d="M65.37,195a5.1,5.1,0,0,1-2.41-.57,4.24,4.24,0,0,1-1.73-1.68,5.34,5.34,0,0,1-.64-2.72,5.44,5.44,0,0,1,.66-2.75A4.65,4.65,0,0,1,63,185.51a5,5,0,0,1,2.45-.62,4,4,0,0,1,2.25.61,4.11,4.11,0,0,1,1.39,1.43l-.14.34.21-2h2v9.48H69v-2.47l.25.55a3,3,0,0,1-.43.58,5.47,5.47,0,0,1-.82.72,4.33,4.33,0,0,1-1.15.61A4.49,4.49,0,0,1,65.37,195Zm.58-1.76a3.37,3.37,0,0,0,1.44-.3,2.76,2.76,0,0,0,1.06-.85A3.08,3.08,0,0,0,69,190.8V189a3,3,0,0,0-.64-1.21,3.35,3.35,0,0,0-1.1-.8,3.43,3.43,0,0,0-1.4-.28,3,3,0,0,0-1.58.41,3.09,3.09,0,0,0-1.13,1.14,3.4,3.4,0,0,0-.43,1.72,3.28,3.28,0,0,0,.44,1.67,3.18,3.18,0,0,0,1.17,1.19A3,3,0,0,0,66,193.23Z"/><path class="cls-3" d="M80.44,195a4.58,4.58,0,0,1-2.07-.5,3.72,3.72,0,0,1-1.52-1.35l.11-.67v6.85H74.83V185.15h1.86l.29,2.42-.23-.68a5.59,5.59,0,0,1,1.74-1.44,5,5,0,0,1,2.36-.56,4.62,4.62,0,0,1,2.4.63,4.47,4.47,0,0,1,1.68,1.79,5.65,5.65,0,0,1,.62,2.69,5.13,5.13,0,0,1-.67,2.64,4.42,4.42,0,0,1-1.82,1.74A5.48,5.48,0,0,1,80.44,195ZM80,193.3a3.27,3.27,0,0,0,1.67-.43,3.39,3.39,0,0,0,1.22-1.16,3.05,3.05,0,0,0,.47-1.69,3.28,3.28,0,0,0-.43-1.7,3.13,3.13,0,0,0-2.77-1.59,3.57,3.57,0,0,0-1.49.3,3.13,3.13,0,0,0-1.1.86A3.32,3.32,0,0,0,77,189.2v1.6a2.85,2.85,0,0,0,.55,1.26,3.17,3.17,0,0,0,1.09.9A2.94,2.94,0,0,0,80,193.3Z"/><path class="cls-3" d="M88.41,194.76V177h2.11v10.44l0-.39A4,4,0,0,1,92,185.53a4.4,4.4,0,0,1,2.37-.61,3.08,3.08,0,0,1,2.18.79,2.71,2.71,0,0,1,.88,2v7H95.23v-6.27a1.92,1.92,0,0,0-.44-1.25,1.66,1.66,0,0,0-1.32-.49,2.48,2.48,0,0,0-1.48.47,3.07,3.07,0,0,0-1,1.27,4.24,4.24,0,0,0-.38,1.83v4.44Z"/><path class="cls-3" d="M100.93,181.85a1.1,1.1,0,0,1,.4-.85,1.32,1.32,0,0,1,.88-.34,1.28,1.28,0,0,1,.88.34,1.15,1.15,0,0,1,0,1.71,1.32,1.32,0,0,1-.88.33,1.36,1.36,0,0,1-.88-.33A1.09,1.09,0,0,1,100.93,181.85Zm.14,3.43h2.15v9.48h-2.15Z"/><path class="cls-3" d="M114.6,193.87a4.67,4.67,0,0,1-1.53.82,5.6,5.6,0,0,1-1.79.3,5.76,5.76,0,0,1-2.71-.62,4.48,4.48,0,0,1-1.84-1.74,5,5,0,0,1-.67-2.63,4.78,4.78,0,0,1,.71-2.62,4.89,4.89,0,0,1,1.84-1.72,5.22,5.22,0,0,1,2.47-.61,6.39,6.39,0,0,1,2,.31,4.71,4.71,0,0,1,1.57.88l-1.07,1.38a4.62,4.62,0,0,0-1-.56,3.27,3.27,0,0,0-1.34-.27,3,3,0,0,0-1.55.43,3.09,3.09,0,0,0-1.1,1.14,3.4,3.4,0,0,0-.4,1.64,3.24,3.24,0,0,0,.42,1.63,3.09,3.09,0,0,0,1.14,1.16,3.26,3.26,0,0,0,1.7.44,3.16,3.16,0,0,0,1.11-.19,3.27,3.27,0,0,0,.92-.5Z"/><path class="cls-3" d="M128.43,195a4.48,4.48,0,0,1-4.06-2.41,5.51,5.51,0,0,1-.63-2.67,5.19,5.19,0,0,1,.66-2.7,4.48,4.48,0,0,1,1.79-1.72,5.27,5.27,0,0,1,2.52-.6,5,5,0,0,1,2.14.48,3.87,3.87,0,0,1,1.59,1.33l-.12.76V177h2.13v17.72h-2.13V192.4l.26.6a5.4,5.4,0,0,1-1.76,1.43A5.08,5.08,0,0,1,128.43,195Zm.67-1.81a3.31,3.31,0,0,0,1.5-.32,3.18,3.18,0,0,0,1.09-.86,3.1,3.1,0,0,0,.63-1.27v-1.81a3,3,0,0,0-.65-1.21,3.22,3.22,0,0,0-1.12-.81,3.61,3.61,0,0,0-1.45-.29,3.18,3.18,0,0,0-1.58.41,3.15,3.15,0,0,0-1.17,1.15,3.25,3.25,0,0,0-.44,1.69,3.3,3.3,0,0,0,.44,1.69,3.42,3.42,0,0,0,1.17,1.19A3,3,0,0,0,129.1,193.18Z"/><path class="cls-3" d="M142.56,195a5.64,5.64,0,0,1-2.79-.65,4.58,4.58,0,0,1-1.81-1.79,5.14,5.14,0,0,1-.64-2.6,4.69,4.69,0,0,1,.72-2.54,5.41,5.41,0,0,1,1.91-1.83,5.19,5.19,0,0,1,2.65-.69,4.54,4.54,0,0,1,3.12,1.1,5.69,5.69,0,0,1,1.69,3l-7.83,2.75-.5-1.26,6.39-2.36-.44.33a3.11,3.11,0,0,0-.91-1.31,2.48,2.48,0,0,0-1.68-.55,2.93,2.93,0,0,0-1.54.41,3,3,0,0,0-1.07,1.14,3.47,3.47,0,0,0-.39,1.68,3.61,3.61,0,0,0,.41,1.72,3,3,0,0,0,1.12,1.18,3.17,3.17,0,0,0,1.63.42,3.33,3.33,0,0,0,1.21-.23,5,5,0,0,0,1.11-.6l1,1.58a6,6,0,0,1-1.59.78A5.39,5.39,0,0,1,142.56,195Z"/><path class="cls-3" d="M152.72,195a5.43,5.43,0,0,1-1.95-.36,3.8,3.8,0,0,1-1.57-1.06l.89-1.24a4.88,4.88,0,0,0,1.24.86,3,3,0,0,0,2.08.17,1.35,1.35,0,0,0,.63-.39,1,1,0,0,0,.24-.71,1,1,0,0,0-.33-.81,2.6,2.6,0,0,0-.84-.47c-.33-.12-.7-.24-1.1-.35a4,4,0,0,1-1.78-1.07,2.43,2.43,0,0,1-.62-1.67,2.76,2.76,0,0,1,.38-1.41,3,3,0,0,1,1.13-1.08,3.75,3.75,0,0,1,1.83-.42,6,6,0,0,1,1.77.24,4.23,4.23,0,0,1,1.46.81l-.85,1.33a2.48,2.48,0,0,0-1-.65,2.72,2.72,0,0,0-1-.22,2.09,2.09,0,0,0-.76.13,1.37,1.37,0,0,0-.58.36.9.9,0,0,0-.21.61.89.89,0,0,0,.3.77,2.92,2.92,0,0,0,.84.47l1,.36a5.18,5.18,0,0,1,1.24.55,2.86,2.86,0,0,1,.88.85,2.23,2.23,0,0,1,.33,1.26,3.16,3.16,0,0,1-.4,1.57,2.85,2.85,0,0,1-1.21,1.14A4.55,4.55,0,0,1,152.72,195Z"/><path class="cls-3" d="M159.23,181.85a1.06,1.06,0,0,1,.4-.85,1.3,1.3,0,0,1,.88-.34,1.28,1.28,0,0,1,.87.34,1.13,1.13,0,0,1,0,1.71,1.31,1.31,0,0,1-.87.33,1.34,1.34,0,0,1-.88-.33A1.06,1.06,0,0,1,159.23,181.85Zm.13,3.43h2.16v9.48h-2.16Z"/><path class="cls-3" d="M169.78,199.48a6.54,6.54,0,0,1-1.86-.25,5.68,5.68,0,0,1-1.47-.69,14.11,14.11,0,0,1-1.27-1l1.26-1.47a6.93,6.93,0,0,0,1.53,1.08,3.84,3.84,0,0,0,1.74.39,4.13,4.13,0,0,0,1.82-.36,2.58,2.58,0,0,0,1.13-1,2.92,2.92,0,0,0,.4-1.44l0-2.57.18.42a3.62,3.62,0,0,1-1.49,1.66,4.78,4.78,0,0,1-2.61.67,4.57,4.57,0,0,1-2.38-.66,5.14,5.14,0,0,1-1.76-1.8,5,5,0,0,1-.66-2.55,5.11,5.11,0,0,1,.68-2.64,5,5,0,0,1,1.82-1.79,4.83,4.83,0,0,1,2.46-.66,5.09,5.09,0,0,1,2.31.52,3.61,3.61,0,0,1,1.54,1.32l-.14.38.21-1.83h2v9.55a4.41,4.41,0,0,1-.65,2.34,4.67,4.67,0,0,1-1.88,1.68A6.26,6.26,0,0,1,169.78,199.48Zm-3.27-9.55a3.28,3.28,0,0,0,3.27,3.3,3.73,3.73,0,0,0,1.53-.31,3.21,3.21,0,0,0,1.13-.86,3.29,3.29,0,0,0,.64-1.21V189a2.9,2.9,0,0,0-.69-1.19,3.58,3.58,0,0,0-1.14-.81,3.67,3.67,0,0,0-1.47-.29,3.24,3.24,0,0,0-1.63.42,3.21,3.21,0,0,0-1.64,2.85Z"/><path class="cls-3" d="M180.82,185.28l.16,2.32-.07-.37a3.51,3.51,0,0,1,1.47-1.68,4.47,4.47,0,0,1,2.4-.63,3.1,3.1,0,0,1,2.19.79,2.74,2.74,0,0,1,.88,2v7H185.7v-6.27a2,2,0,0,0-.45-1.25,1.64,1.64,0,0,0-1.32-.49,2.53,2.53,0,0,0-1.47.46,3,3,0,0,0-1.06,1.26,4.3,4.3,0,0,0-.38,1.85v4.44h-2.15v-9.48Z"/></g></g></g></svg>