<svg xmlns="http://www.w3.org/2000/svg" viewBox="0 0 197.96 66.69"><defs><style>.cls-1{fill:#f15a29;}</style></defs><g id="Layer_2" data-name="Layer 2"><g id="Layer_1-2" data-name="Layer 1"><path class="cls-1" d="M39.34,56.93a11.18,11.18,0,0,0,1.28-5.8c0-.85-1.4-2.22-2.35-2.42a3.33,3.33,0,0,0-2.78,1.63c-1.85,4.73-6.17,6.08-10.22,7.54-8.33,3-14.72-.66-16.23-9.31a29.79,29.79,0,0,1,4.74-22.7,23.32,23.32,0,0,1,6.3-5.94c3.86-2.57,5.51-2.18,9.47.81a18.08,18.08,0,0,0,3.18,1.56c1.85-6.69-2.22-11.71-9-11.45-5.28.21-9.58,2.7-13.33,6.22-9.19,8.62-13.09,26-8.5,37.74,2,5.11,5.36,8.9,10.61,10.81C21.21,68.78,34.33,64.65,39.34,56.93Z"/><path class="cls-1" d="M195.88,13.72a20.21,20.21,0,0,0-4-.94,22,22,0,0,0-1-4.39,36.81,36.81,0,0,0-3.77-6.86,3.39,3.39,0,0,0-4.79-.89c-1.92,1.4-.93,3.06.09,4.66a9.84,9.84,0,0,1,1.72,7.35c-2.28,1.22-5.91.22-5.95,3.76s3.57,2.65,6.07,3.86c0,2.87,0,5.52,0,8.16,0,8.7-.14,17.41.19,26.11a30.16,30.16,0,0,0,2.34,9.22c1,2.6,3.22,3.5,5.06,2.57a3.71,3.71,0,0,0,1.89-5c-2-5.68-1.7-11.56-1.71-17.41q0-11.68,0-23.35c1.74-.7,3.21-1,4.27-1.81a4.41,4.41,0,0,0,1.64-3C198,15.11,196.75,14.11,195.88,13.72Z"/><path class="cls-1" d="M97.88,33.52C94.65,28.31,90,27,84.61,29.75a25.8,25.8,0,0,0-2.31,1.52A15.79,15.79,0,0,0,80,28.13a16.62,16.62,0,0,0-4.9-2.93c-.8-.27-2.36.64-3,1.46a2.82,2.82,0,0,0,.48,2.76c3.27,2.26,3.31,5.7,3.7,9,.65,5.65,1.25,11.3,1.89,17,.16,1.41.41,2.81.58,4.22.21,1.8,1.15,3.45,2.92,3a4.88,4.88,0,0,0,2.79-3.26,28.12,28.12,0,0,0,.44-7.4c-.13-3-.63-6-.94-9s1.6-5.82,4.26-6.34c3.2-.63,3.71,2.07,4.69,4.07a20.32,20.32,0,0,1,1,3,59.76,59.76,0,0,1,2.68,18.93c0,1.54-.51,3.59,1.62,4,2.51.43,2.8-2,3-3.56.59-4.38,1.34-8.85,1-13.23C101.88,44.21,101,38.5,97.88,33.52Z"/><path class="cls-1" d="M120.14,60.72c-.5-4.21-1.29-8.42-1.41-12.65-.23-7.81-.09-15.64-.06-23.46,0-1.38.22-2.75.35-4.19,1.23-.42,2.41-.53,3.18-1.15,1-.82,2.4-2.08,2.33-3.06s-1.66-2-2.79-2.62c-.85-.48-2-.36-3.16-.52-.47-2.1-.55-4.17-1.4-5.84A24.92,24.92,0,0,0,112.65.91c-.66-.66-2.93-.57-3.77.07-.66.51-.75,2.71-.2,3.64a13.19,13.19,0,0,1,2.18,8.18,16,16,0,0,0-4.1,1.16,4.38,4.38,0,0,0-1.91,2.77c-.09.72.93,1.91,1.74,2.33a19.91,19.91,0,0,0,4.26,1.14c0,3.4,0,6.23,0,9.06,0,8.53-.09,17.07.24,25.58.12,2.94,1.21,5.89,2.18,8.73.73,2.17,2.34,3.64,4.92,2.94,2-.52,2.69-2.52,2.12-5.29C120.28,61.05,120.16,60.89,120.14,60.72Z"/><path class="cls-1" d="M152.59,59.93l-4-.65c-.6-5.38-.91-10.51-1.85-15.53a51.55,51.55,0,0,0-3.51-11.08,6.82,6.82,0,0,0-7.88-4.09c-1.22.21-3,1.09-3.25,2-.67,2.29,1.55,2.22,3,2.67.19.07.3.48.5.82-.36.34-.7.72-1.09,1A18.42,18.42,0,0,0,128.47,57c2.81,6.93,6.94,8.65,13.86,5.79a2.77,2.77,0,0,1,1,0c3.93,4.1,5.68,4.78,7.94,3.06C153.09,64.43,153.84,61.66,152.59,59.93ZM140,57.43a2.2,2.2,0,0,1-3.66-.06,11,11,0,0,1-2.18-9.58c.6-3.11,1.55-6.17,6-7.7.46,5.06,1,9.29,1.19,13.53A6.33,6.33,0,0,1,140,57.43Z"/><path class="cls-1" d="M61.9,35.71a6.11,6.11,0,0,0-6.45-.87c-6.71,2.68-10.16,7.92-10.51,16A75,75,0,0,0,47,59c1.59,4.26,4.5,7.28,9.35,7.62s8.45-2.24,10.83-6.39C71.59,52.66,69,40.79,61.9,35.71Zm-.37,21.13a8,8,0,0,1-4.47,3.08c-2.2.44-3.27-1.65-4.1-3.47-2.68-5.79-1.44-11.71,3.74-16.64,4,3.2,6.15,7.13,6.11,12A9.26,9.26,0,0,1,61.53,56.84Z"/><path class="cls-1" d="M171.8,58.47c-3.46,2.65-5.73,2.42-7.72-1A12.3,12.3,0,0,1,169.77,40c1.39-.59,3.17-.95,2.43-2.62A5,5,0,0,0,168.61,35a8.41,8.41,0,0,0-4.49,1.39c-5.68,3.17-8.13,8.2-8.38,14.7a66.55,66.55,0,0,0,1.94,8.23,11.42,11.42,0,0,0,7,6.88c4.45,1.65,9.75-.63,10.89-4.85.31-1.14-.4-2.56-.64-3.86C173.9,57.77,172.63,57.84,171.8,58.47Z"/></g></g></svg>