<svg xmlns="http://www.w3.org/2000/svg" viewBox="0 0 207.57 100.4"><g id="Layer_2" data-name="Layer 2"><g id="Layer_1-2" data-name="Layer 1"><path d="M42.13,50c.27,5.55.49,10.33.75,15.1.18,3.18.42,6.36.67,9.54.16,2.1.9,3.17,2.28,3.43s2.54-.43,3.35-2.33c.38-.92.67-1.88,1-2.82q4.44-13.48,8.89-27c.29-.87.7-1.7,1-2.55.42,4.71.44,9.25.41,13.79s-.14,8.77-.11,13.16A15.54,15.54,0,0,0,61,74.14a2.25,2.25,0,0,0,2.36,1.91,2.31,2.31,0,0,0,2.11-2.19,23.64,23.64,0,0,0,.27-3.57c0-2.69,0-5.38,0-8.08,0-8.87,0-17.74,0-26.61a30.65,30.65,0,0,0-.29-4.17c-.35-2.46-1.25-3.65-2.73-3.81s-2.33.51-3.31,3.2q-5,13.62-9.89,27.26c-.29.82-.57,1.65-.85,2.47A4.54,4.54,0,0,1,47.89,58q-.42-16-.82-32c0-.6.19-1.33-.09-1.76a4.76,4.76,0,0,0-1.94-2,2,2,0,0,0-2.63,1.37,9.75,9.75,0,0,0-.6,3.2,49.28,49.28,0,0,1-1.89,12.38A156.51,156.51,0,0,1,26.74,74.14,70.84,70.84,0,0,1,11.52,93.6c-2.38,2.16-5,3.85-8.49,4L2.38,95A2.5,2.5,0,0,0,0,97.75,2.21,2.21,0,0,0,2,100a18.28,18.28,0,0,0,5.58-.25c3.06-.72,5.56-2.63,7.87-4.72A69.08,69.08,0,0,0,32,73.63c3.28-6.92,6-14.11,9-21.17C41.23,51.82,41.54,51.2,42.13,50Z"/><path d="M116.84,72.83a3,3,0,0,0,2.38.39c.33-.08.52-1.33.47-2-.07-1.18-.65-2.36-.57-3.5a31,31,0,0,1,5.25-15.39,18.23,18.23,0,0,1,1.74-1.8v3.56c0,6.08,0,12.16,0,18.25a24.34,24.34,0,0,0,.56,4.73,1.8,1.8,0,0,0,2.22,1.51,3.3,3.3,0,0,0,1.86-1.63,6.37,6.37,0,0,0,.31-2.64c0-8.58.11-17.16-.13-25.73-.07-2.7.76-4.41,3.1-5.44q6.3-2.76,12.62-5.4c1.72-.72,3.5-1.28,5.61-2,.26,5,.55,9.66.75,14.31.23,5.18.36,10.37.61,15.55a18.68,18.68,0,0,0,.68,4.41,2.22,2.22,0,0,0,1.74,1.19c.56,0,1.3-.8,1.56-1.41a5.65,5.65,0,0,0,.16-2.37q-.48-12-1-23.9c-.15-3.27-.44-6.54-.66-9.73.46-.36.75-.63,1.08-.85,6.88-4.67,9.23-11.47,9-19.41a16,16,0,0,0-2.84-8.4c-2.63-4-6.52-5.35-11.12-5a3.77,3.77,0,0,0-1.9.73,1.21,1.21,0,0,0,.45,2.12,8.6,8.6,0,0,0,1.77.11c4.21.27,7.08,2.28,8.5,6.35,2.13,6.1.65,11.57-2.86,16.67-.57.82-1.24,1.8-2.48,1.71-.52-3.69-1-7.24-1.53-10.78a7.27,7.27,0,0,0-.81-2.54,1.88,1.88,0,0,0-1.48-.62,1.41,1.41,0,0,0-1,.93,8.8,8.8,0,0,0,0,2.35c.36,4.45.74,8.9,1.13,13.45L130.9,38.65c0-1.21,0-2.28,0-3.34-.21-5.08-.28-10.17-.73-15.23a27,27,0,0,0-1.83-7.5c-1.16-2.88-3.72-3.75-6.38-2.22a29.14,29.14,0,0,0-5,4.16c-.68.63-1,1.79,0,2.32a3.71,3.71,0,0,0,2.44-.21c.37-.12.51-.86.89-1.13,1.17-.82,2.41-1.55,3.88-2.48A16.23,16.23,0,0,1,126,20.87c.16,6.28.12,12.56.29,18.84a6.28,6.28,0,0,1-2,5,32.25,32.25,0,0,0-9.08,19.41,24,24,0,0,0,.1,5.93A5,5,0,0,0,116.84,72.83Z"/><path d="M77.55,84.3c-.67.82-1.46,1.54-.47,2.52a1.77,1.77,0,0,0,2.67-.2,17.91,17.91,0,0,0,2.86-3.42c2.54-4.28,5.1-8.57,7.33-13,1.25-2.51,2.4-4.46,5.66-4a13.38,13.38,0,0,0,3.54-.48c.68,2.12,1.26,4,1.89,5.89a20.64,20.64,0,0,0,1.08,2.77,2.12,2.12,0,0,0,2.69,1.31,2.3,2.3,0,0,0,1.51-2.63,12,12,0,0,0-.4-2c-.61-2.42-1.31-4.81-1.87-7.23-1.84-8.1-2.2-16.38-2.94-24.62a6,6,0,0,0-.43-2.6A3.78,3.78,0,0,0,98.42,35a1.94,1.94,0,0,0-2.15,1.67c-.22,1-.29,2-.5,3-1,4.55-1.7,9.23-3.19,13.63a160.06,160.06,0,0,1-12.1,27A27.33,27.33,0,0,1,77.55,84.3Zm19.3-29.68.58.15c.28,2.34.57,4.67.88,7.22H93.85C94.88,59.46,95.87,57,96.85,54.62Z"/><path d="M202.74,72.73c.9,2.55,1.94,3.39,3.42,2.91,1.32-.43,1.73-1.69,1.17-4.11-.82-3.59-2-7.13-2.52-10.76-1-7.1-1.6-14.26-2.37-21.39a16.67,16.67,0,0,0-.33-2.66,2.27,2.27,0,0,0-2.43-1.81,2.18,2.18,0,0,0-2.11,1.8,19.82,19.82,0,0,0-.45,2.65,53,53,0,0,1-3.62,15.07c-2.85,6.81-5.72,13.6-8.85,20.27-1.68,3.57-3.21,7.31-6.23,10.12a1.85,1.85,0,0,0-.11,1.81,1.94,1.94,0,0,0,1.81.41A7,7,0,0,0,182.6,85c1.71-2.45,3.34-5,4.82-7.55,2-3.54,3.85-7.18,5.8-10.83l7.23-.78C201.24,68.23,201.94,70.49,202.74,72.73ZM195,62.26l3.1-7.58.58.06c.31,2.34.61,4.67.95,7.2Z"/><path d="M163,39.18a21.51,21.51,0,0,0-1.12,4A43.79,43.79,0,0,0,162,59.25a36.62,36.62,0,0,0,3,9.64c2.5,5,8.21,5.71,12.37,2,.57-.51,1.11-1,1.79-1.7A24.81,24.81,0,0,0,180.71,72a1.43,1.43,0,0,0,1.27.47,2.11,2.11,0,0,0,1-1.28,7.26,7.26,0,0,0-.18-1.76c-.09-3.38-.18-6.76-.21-10.14,0-3.09.19-6.19,0-9.26a27.64,27.64,0,0,0-1.2-6.43,3,3,0,0,0-2.16-1.61c-1.14-.09-1.62,1.09-1.65,2.12a43.72,43.72,0,0,0,.12,5.37c.38,4.4.51,8.8-.91,13a15,15,0,0,1-2.73,4.88c-1.66,1.92-3.84,1.63-5.26-.51a14.38,14.38,0,0,1-1.58-3.53A48.77,48.77,0,0,1,165,49.18a56.67,56.67,0,0,1,.68-8.9c.12-.87.84-1.7-.31-2.24A1.67,1.67,0,0,0,163,39.18Z"/><path d="M74,72.23c.11,1.65.9,2.55,2,2.46,1.35-.1,1.86-1.1,2-2.25a17.75,17.75,0,0,0-.22-4.76q-.51-16.41-1-32.82c0-.2.08-.45,0-.59-.33-.55-.75-1.5-1.08-1.48a2.64,2.64,0,0,0-1.83,1.05,4.75,4.75,0,0,0-.51,2.28,193.12,193.12,0,0,0,.15,26.57C73.72,65.87,73.77,69.06,74,72.23Z"/><path d="M34.73,100.4c-3,0-5.4-1.8-5.4-4.48s2.43-4.48,5.4-4.48a6.25,6.25,0,0,1,3.73,1.21l-1.2,1.11a3.71,3.71,0,0,0-2.3-.94c-1.35,0-2.29.79-2.29,3.1s.92,3.15,2.44,3.15a2.37,2.37,0,0,0,.68-.07V96.56H34.4V95.12h4.06v4A6.27,6.27,0,0,1,34.73,100.4Z"/><path d="M50.19,100.13,48,97.27a.64.64,0,0,0-.58-.27v3.13h-3V91.72h4.15c2.35,0,4.09.47,4.09,2.28a2.68,2.68,0,0,1-2,2.46L53.54,100v.1Zm-2-7.14h-.75v2.94c1.57,0,2-.69,2-1.58A1.3,1.3,0,0,0,48.17,93Z"/><path d="M63.77,100.13l-.59-1.53H59.91l-.58,1.53h-2.1V100l3.54-8.31h3.1L67.1,100v.1ZM61.58,94l-1.16,3.12h2.21Z"/><path d="M76.45,97.08H75.39v3h-3V91.72H76.5c2,0,4.09.26,4.09,2.68S77.69,97.08,76.45,97.08ZM76.14,93h-.75v2.94c1.57,0,2-.69,2-1.58A1.27,1.27,0,0,0,76.14,93Z"/><path d="M92.05,100.13V96.61H88.92v3.52h-3V91.72h3v3.4h3.13v-3.4h3v8.41Z"/><path d="M101.51,100.13V91.72h3v8.41Z"/><path d="M115.56,100.4c-3,0-5.39-1.8-5.39-4.48s2.4-4.48,5.39-4.48a6,6,0,0,1,3.68,1.21l-1.19,1.1a3.82,3.82,0,0,0-2.28-.89c-2,0-2.27,1.93-2.27,3.06s.25,3,2.27,3a3.7,3.7,0,0,0,2.28-.86l1.19,1.1A6,6,0,0,1,115.56,100.4Z"/><path d="M136,100.13h-4.29V91.72H136c2.4,0,4.93,1.14,4.93,4S138.49,100.13,136,100.13ZM135.47,93h-.69v5.86h.69c1.37,0,2.33-.83,2.33-3.22C137.8,93.82,136.84,93,135.47,93Z"/><path d="M153,100.13h-6.49V91.72h6l.63,1.4v.11h-3.59v1.89h3.59v1.49h-3.59v2h4.06v.1Z"/><path d="M162.86,100.4a5.51,5.51,0,0,1-4.22-1.65l1.21-1a4.81,4.81,0,0,0,3,1.33c.45,0,1.5,0,1.5-.64s-1.18-.91-2.4-1.26-3.14-.86-3.14-2.74c0-2.37,2.48-3,4.16-3a5.18,5.18,0,0,1,3.78,1.32l-1.17,1a4.43,4.43,0,0,0-2.57-1c-.68,0-1.49.13-1.49.69s.94.68,2.44,1.11c1.33.38,3.26,1.05,3.26,2.93C167.23,99.56,165.09,100.4,162.86,100.4Z"/><path d="M172.87,100.13V91.72h3v8.41Z"/><path d="M186.93,100.4c-3,0-5.4-1.8-5.4-4.48s2.43-4.48,5.4-4.48a6.25,6.25,0,0,1,3.73,1.21l-1.2,1.11a3.7,3.7,0,0,0-2.29-.94c-1.36,0-2.3.79-2.3,3.1s.93,3.15,2.44,3.15A2.32,2.32,0,0,0,188,99V96.56H186.6V95.12h4.06v4A6.27,6.27,0,0,1,186.93,100.4Z"/><path d="M203.9,100.13l-5.4-4.3v4.3h-1.92V91.72h1.7l5.54,4.47V91.72h2v8.41Z"/></g></g></svg>