<svg xmlns="http://www.w3.org/2000/svg" viewBox="0 0 218.39 269.91"><defs><style>.cls-1{fill:#333029;}.cls-2{fill:none;}.cls-3{fill:#fff;}</style></defs><g id="Layer_2" data-name="Layer 2"><g id="Layer_1-2" data-name="Layer 1"><path class="cls-1" d="M92,112.47h0Z"/><path class="cls-1" d="M96.93,107.9h0L98.52,110Z"/><path class="cls-1" d="M116.7,97a1.23,1.23,0,0,1,.19.47A1.23,1.23,0,0,0,116.7,97Z"/><path class="cls-2" d="M67.54,67.1c.1-.23.22-.66.53-.37C67.76,66.44,67.64,66.87,67.54,67.1Z"/><path class="cls-1" d="M102.51,105.82h0c.21.5.43,1,.63,1.51C102.94,106.82,102.72,106.32,102.51,105.82Z"/><path class="cls-1" d="M167.73,96.4l.79.57-.79-.57Z"/><path class="cls-1" d="M183.09,89.87a1.76,1.76,0,0,1-.65,0h0A1.76,1.76,0,0,0,183.09,89.87Z"/><path class="cls-1" d="M119.53,99.06,117,98l-.09-.38L117,98h0Z"/><path class="cls-1" d="M92,112.48h0l-.52-.15Z"/><path class="cls-1" d="M102.53,105.83c.09-.22.16-.6.29-.63-.13,0-.2.41-.29.63Z"/><path class="cls-1" d="M182.49,89.81l-.09.08h0l.09-.08Z"/><path class="cls-3" d="M68.22,66.92h0l0,.09h0Z"/><path class="cls-3" d="M68.25,66.94l0,0h0a.12.12,0,0,0,0,0l0,0h0Z"/><path class="cls-3" d="M101,24.29h0l-.06.06,0,0Z"/><path class="cls-1" d="M81.13,268.72c-.41-4.61-.67-9.24-1.29-13.83-.55-4.07-1.51-8.1-2.29-12.15a1.53,1.53,0,0,0-.21,1c.65,5.39,1.36,10.77,2,16.16.37,3.32.58,6.67.85,10h1A11.81,11.81,0,0,0,81.13,268.72Z"/><path class="cls-1" d="M92.84,258.52c-.83-1.28-1.55-2.63-2.31-3.94l-.3,0a4.55,4.55,0,0,0,.18,1.45A25.18,25.18,0,0,0,92,259c2.28,3.65,4.59,7.28,6.89,10.92h1c-1.17-2.13-2.27-4.3-3.54-6.37C95.25,261.81,94,260.22,92.84,258.52Z"/><path class="cls-1" d="M217.5,250.53A30.68,30.68,0,0,0,204.56,244c-7.07-1.85-14.16-3.65-21.23-5.51a22.36,22.36,0,0,1-10.08-5.56c-.32-.31-.67-1-.53-1.32,2.37-4.85,4.53-9.82,7.3-14.43a119.12,119.12,0,0,0,12.27-27.78c2.25-7.56,3.73-15.35,5.48-23a62.83,62.83,0,0,0,.38-25,93.69,93.69,0,0,0-2.91-11.24,61.17,61.17,0,0,1-2.69-16.87c0-1.49,0-2.89,1.76-3.5a3.59,3.59,0,0,0,.57-.32l-.17-.15-1.86.54a1.65,1.65,0,0,1,1-2.08,28.63,28.63,0,0,0,3-2.06.76.76,0,0,0-.08-.11l-3,1.52-.16-.3,1.7-1.21-2,.51.78-2.1a2,2,0,0,1-.16-1.49,29,29,0,0,0-.35-18.23,60.75,60.75,0,0,1-1.57-6l.34-.14c1.53,2.29,3.27,4.46,4.56,6.88,3,5.6,4.42,11.54,2.8,17.9a20,20,0,0,1-.84,2.62A24,24,0,0,0,197.25,119c-.32-5,.89-9.8,2.62-14.57a20.92,20.92,0,0,0,.58-11.58,28.12,28.12,0,0,0-6.12-12.71,13,13,0,0,1-3.11-7.6,77.28,77.28,0,0,0-3.08-16.7c-.69-2.11-1.37-4.23-2-6.34,1.53,2.11,3.69,3.93,3.13,7a4.45,4.45,0,0,0,.12-.85c0-.25.11-.5.22-1,3.73,6.11,3.58,13,5.26,19.5-.14-2.14-.28-4.21-.42-6.28-.37-5.2-1.41-10.2-4.24-14.71a3,3,0,0,1-.36-1.78,18.4,18.4,0,0,0-1-8.61l-.42-1.13a9.14,9.14,0,0,1,1.55,1.07,3.54,3.54,0,0,1,1.62,3.21c.12,4.6,1.58,8.9,3.18,13.17-1.32-4.36-.53-8.86-1.09-13.5a16.27,16.27,0,0,0,8.9,1.63,13.74,13.74,0,0,1-8.21-2.95,1.82,1.82,0,0,1-.73-1c-.33-2.33-.63-4.67-.85-7a21.27,21.27,0,0,0-3.65-10.89,6.32,6.32,0,0,0-6.44-2.6,25.07,25.07,0,0,0-4.23,1.49,1.3,1.3,0,0,1-.65.14,1.89,1.89,0,0,1-1.68-2.52c1.24-6.57-.73-12.09-5.48-16.66a19.6,19.6,0,0,0-2.81-1.87l-.22.29c3.59,3.66,6.66,7.6,7.22,12.92A25.24,25.24,0,0,0,162.52,4.3a.58.58,0,0,0,.24.38,39.6,39.6,0,0,1,8.53,8.37,15.36,15.36,0,0,1,1.8,15.35,13.56,13.56,0,0,0-.37,1.39l.18,0,1.28-1.45.25.21-1,1.52a12.24,12.24,0,0,0,1.13-.77c1-.85,2-1.77,3-2.55.7-.52,1.36-.29,2,.37a30.33,30.33,0,0,1,6.57,9.8,8,8,0,0,1,.23.94,12.09,12.09,0,0,0-10.36-2.49c1.9,2.61,3.9,5.12,5.63,7.79,3.74,5.75,5.51,12.28,7.13,18.85,0,.2.11.54,0,.58-1.26.66-.15,1.43,0,2.1.13,1,.61,2,.77,3,.59,3.7,1.07,7.43,1.69,11.13.33,2,.88,3.93,1.34,5.91l-2.65,1a2.17,2.17,0,0,0,.07.24l2.77-.73c0,.1.05.2.07.31l-9.8,4.27a1.8,1.8,0,0,1-.66,0,0,0,0,0,1,0,0l-3.88,2.18-.32-.4c2.4-2.84,4.22-6.2,7.65-8.22-3.14.35-6.12.94-8.28,3.76l.93-.06c-.87,2-1.73,4-2.65,5.91-.17.35-.58.59-.88.87l-.37-.26c1.07-2.7,2.14-5.4,3.26-8.21-3.55,2.43-7.63,4-10.63,7.64.08-.75.12-1.2.17-1.65l-.17-.06-1.76,4.24-1.14-1.29c.42,1.23.77,2.22,1.08,3.13a22,22,0,0,0-8.62,13.3,25.28,25.28,0,0,0,1.66,16.12,3.06,3.06,0,0,0,.12-.55c-.09-.43-.16-.86-.28-1.29a30.12,30.12,0,0,1-1.11-11.37c.5-4.44,1.61-8.64,5-11.9.88-.87,1.77-1.74,2.57-2.68s2.44-1.33,3-2.72a0,0,0,0,0,0,0,.05.05,0,0,1,0,0c-.1-.29-.34-.65-.25-.83a16.59,16.59,0,0,1,2.21-3.24c-.65,1.35-1.31,2.71-2,4.07a0,0,0,0,0,0,0l0,0,.79.57,2.22-2.65V96c1.23-1.55,1.48-3.63,3.57-4.72-1,1.73.22,3.85-1.78,5.08,3.56-1.48,7-3.12,10.36-4.77s6.79-3.32,10.2-5A20.46,20.46,0,0,1,194,97.87c-.37,2.2-3,4.56-4.84,4.66l1.82-3c-2.69,2.86-4.34,4-5.49,3.29.89-.45,1.71-.85,2.53-1.25l1.32-2.54a11.11,11.11,0,0,0-1.82,1.37c-.61.5-1.47.36-1.52-.26-.13-1.38-.63-.81-1.23-.33s-1.15.7-1.29-.18a4.42,4.42,0,0,1-1.09.32,13.46,13.46,0,0,0-2.76,0c-1,.28-2.05.25-3.07.43-4.77.84-9.34,3.9-11.45,7.68,4.05-4.51,8.9-7.31,15.32-7.24-.71,1.42-1.28,2.6-2.74,3.31a83.39,83.39,0,0,0-8.83,4.77,27.28,27.28,0,0,0-8.07,7.74c1.39-1.85,2.56-.29,3.78.36l.1-.28c-.41-.57-.83-1.13-1.32-1.78,4.42-3.75,8.87-7.4,14.78-8.76a3.32,3.32,0,0,1,.14.54c.06,3.89,2.17,6.58,5.13,8.75a2.11,2.11,0,0,0,3.33-.74c.42-.74.72-1.55,1.23-2.64a25.62,25.62,0,0,1-.36,3.06c-1.09,4.33-.24,4-5.12,4h-.11a57.17,57.17,0,0,0-11.84-.27c-1.15.1-2.3.25-3.45.38l-3.29.38c0,.17,0,.35,0,.52,7-.37,13.9-1.51,20.79.31l-9-.55a19.77,19.77,0,0,0,11.64.43c-.09,1.5-.17,2.88-.25,4.26a6.05,6.05,0,0,0,.76-5.32,2.47,2.47,0,0,1,0-1.18c.4-2.15.84-4.28,1.28-6.48h1.47a12.36,12.36,0,0,0-.11,2.55c.65,4.05,1.16,8.15,2.16,12.12,1.26,5,3.16,9.88,4.4,14.91a53.64,53.64,0,0,1,.86,20.24,89.15,89.15,0,0,1-4.14,16.34c-.49,1.43-.82,2.9-1.22,4.36l.24.08.91-1.79a2.73,2.73,0,0,1-.11,1,119.45,119.45,0,0,1-12.9,32.9c-2.68,4.67-5,9.55-7.5,14.33a34,34,0,0,1-1.89,3.46c-4.08,6-10,9.16-16.93,10.61a38.39,38.39,0,0,1-16.42-.35c-9.87-2.21-18.66-6.86-27.22-12a134.92,134.92,0,0,1-22.72-17.2c-5.48-5.11-11.08-10.07-15.15-16.45-3.24-5.08-6.87-10-9.51-15.37a98,98,0,0,1-8.06-25.3c-.4-2.12-.86-4.22-1.29-6.32l-.34,0c-.19.75-.37,1.49-.59,2.4l-1-2.33a11.22,11.22,0,0,0-6.79-6,5.1,5.1,0,0,0-4.5.31c-.58.34-1.18.65-1.77,1l-.21-.38a9.85,9.85,0,0,1,2.67-1.38,23.49,23.49,0,0,1,5.36-.31c2.1.14,4.19.63,6.39,1,.15,1.11.33,2.5.51,3.89H54c0-.64.12-1.27.13-1.91,0-4.31.05-8.63.12-13a13.43,13.43,0,0,1,.41-2.59c.72-3.36,1.66-6.68,2.18-10.06.79-5.17,1.23-10.39,2-15.57.45-3.2,1.14-6.36.89-9.63A2.86,2.86,0,0,1,60.09,94c1.1-2.48,2.55-4.85,3.26-7.43,1.79-6.47,3.25-13,4.84-19.57a1,1,0,0,0-.31.36c-1,2.7-2.06,5.37-2.89,8.11-1.44,4.74-2.57,9.58-4.15,14.27a84.85,84.85,0,0,1-3.78,8.41l2.23-2.85a7.66,7.66,0,0,1-.14,2.32c-1,4.53-3,8.67-4.74,12.92-1.2,2.87-2.19,5.83-3.27,8.75l.19.07,5.83-11.26C56,117.72,54.69,127.25,52,136.54c.36-.9.73-1.79,1.09-2.66,0,2.35,0,4.67,0,7,0,2.14-.3,2.37-2.45,2-.51-.07-1-.31-1.51-.35-2.14-.18-4.28-.4-6.42-.4a17.2,17.2,0,0,0-3.44.67c1.1-3.92,2-7.83,4.92-10.92a2.9,2.9,0,0,0-1.37.72A13.63,13.63,0,0,0,39.57,138q-1.77,5-3.56,9.91a3,3,0,0,0-.21.69c-.15,2.85-1.51,5.28-2.76,7.72a13.76,13.76,0,0,1-6.29,6.05c-.38.19-.78.31-1.17.47-.07-.09-.15-.17-.22-.25a9,9,0,0,1,1.47-1.9,20.32,20.32,0,0,0,5.28-6A31,31,0,0,0,36,144.08a57.14,57.14,0,0,1,7.57-19.81,47.68,47.68,0,0,0,3.34-6.76c1-2.58,1.65-5.3,2.45-8-1.16,2.6-2.06,5.28-3.22,7.84s-2.62,5.12-3.92,7.69-2.54,5.15-3.81,7.73c-.12.24-.25.48-.38.72,1.45-8.3,1.39-17,6.85-24.19a6.57,6.57,0,0,0-2.19,1.9,28.67,28.67,0,0,0-3.15,6.41c-1.23,4.58-2.08,9.27-3,13.94-.78,4.2-1.24,8.46-2.1,12.64a27.53,27.53,0,0,1-5.77,12.63c-.29.34-.52.71-.93,1.27,1-5.68,1.95-10.9,2.71-16.15,1.06-7.41.49-14.85-.1-22.27-.46-5.81-.7-11.59,1.41-17.18,0,0,0-.12-.15-.37a8.78,8.78,0,0,0-1.18,2,31.38,31.38,0,0,0-1.42,6.4c-.31,5.94-.23,11.9-.51,17.85a98.15,98.15,0,0,1-3.08,20.43c-.16.61-.34,1.22-.52,1.83l.39.11c.92-3.53,2-7,2.71-10.59s1-7.18,1.45-10.78a1.09,1.09,0,0,1,.16.58,69.16,69.16,0,0,1-1.51,17.16,42.78,42.78,0,0,1-5.85,14.48,3.2,3.2,0,0,1-3.76,1.57c-1.35-.34-2.72-.62-4.07-.92,2.38,1,4.51,2.64,7.44,2.59a9.1,9.1,0,0,1-5.41,2.6c2.24,0,4.47.12,6.31-1.5a4.63,4.63,0,0,1,1.5-.94A17,17,0,0,0,34,157.53c0-.07.16-.1.26-.16-.25,1.71-.56,3.36-.7,5-.19,2.31-.13,4.64-.39,6.94a43.41,43.41,0,0,0,1.17,15.52l-.64-11.67.33,0c.28,1,.51,2,.87,2.93a23.86,23.86,0,0,0,1.28,2.71c.46.87,1,1.71,1.48,2.56a3.8,3.8,0,0,0-.38-1.29c-1.63-4.16-3-8.43-2.7-12.93.27-4,1.06-7.94,1.62-12,.21.34.41.67.6,1,2.5,4.38,3.32,9.21,3.69,14.15.29,3.83.57,7.66,1.93,11.31,1,2.78,4.7,8,6.42,9.14-5.65-9.65-5.81-10-6.71-18.15-.23-2.1-.38-4.22-.57-6.3a19.74,19.74,0,0,1,3.25,3,24.15,24.15,0,0,1,2.41,4.92c.74,1.89,1.22,3.88,1.91,5.79,1.15,3.19,4.61,6,8.3,5.39a2.16,2.16,0,0,1,.58.09c-.15,1.52-.25,3-.45,4.46-.65,4.48-1.82,8.6-7.08,9.89a6.22,6.22,0,0,0,6.73-4,13.31,13.31,0,0,0,.85-2.49,21.46,21.46,0,0,0,.51-8.11l1.28-.43c0,2.26-.11,4.44,0,6.61.2,3.11.76,6.2.84,9.31.12,5-.42,10-3.4,14.33A15.77,15.77,0,0,0,62,207.19c.94-4.88.28-9.71-.34-14.56a49.67,49.67,0,0,1-.38-5.85,4,4,0,0,1,1.4-3.07c1.46,2.12,2.27,4.12,1.6,6.81a47.88,47.88,0,0,0-1.34,15.6c.36,4.28.76,8.57,1.16,12.85.1-2.12.2-4.29.32-6.67,1,2.18,1.92,4.07,2.82,6A22.53,22.53,0,0,0,66.06,215,19.38,19.38,0,0,1,65,202.78c.72-2.9,1.38-5.83,2.07-8.74.11-.47.23-.94.39-1.61,1.66,2.46,3.22,4.68,4.68,7a11.48,11.48,0,0,1,1.43,3c.72,2.62,1.4,5.26,1.9,7.92a33.28,33.28,0,0,1-1.11,17.28,3,3,0,0,1-1.06,1.5c-2.34,1.55-4.43,3.46-7.25,4.3-2.56.75-5,2-7.48,2.91A197.11,197.11,0,0,0,16,257.67l-.59.41c-.15.12-.28.26-.42.38,15.4-8.11,30.29-17.17,47.16-22.22-1.2,1.17-3,1.76-3.52,3.7l14.53-9.4a1.44,1.44,0,0,1,0,.41c-1.68,3.73-3.36,7.47-4.87,10.81,4.58-4.83,6.59-11.4,8.15-18.07s.47-13.57-1.45-20.23a2.59,2.59,0,0,1,.66.6C84,214.13,94,222.29,105,229.3c5.15,3.29,10.5,6.29,15.87,9.21,8.84,4.81,18.26,7.2,28.38,6.3,1.62-.14,3.24-.35,4.59-.5l-1.14,8.43c.79-2.6,1.61-5.38,2.5-8.13a1.77,1.77,0,0,1,1-.9,39.46,39.46,0,0,0,14.75-9.79,3.64,3.64,0,0,0,.52-.89,29,29,0,0,0,11.87,6.56c2.82.77,5.63,1.52,8.46,2.26,9.16,2.39,18.65,3.85,26.6,9.63A5.38,5.38,0,0,0,217.5,250.53ZM175.4,26.33l.4-2.53,1.68,1.28Zm12.76-.09a17.45,17.45,0,0,1,2.8,7.2c-2.85-3.92-5.71-7.78-11-8.75A6.34,6.34,0,0,1,188.16,26.24Zm-6.66,1c-.17-.17-.32-.35-.52-.56,4.44,0,11.15,9.88,10.27,15.28-1.1-1-2.1-1.82-3.06-2.72a1.54,1.54,0,0,1-.42-.83C187.19,33.87,184.6,30.43,181.5,27.28Zm3.21,19.4c-2-3.8-4.18-7.46-7.43-10.36,0-.12.06-.24.08-.36a17.11,17.11,0,0,1,4.18.81,34.59,34.59,0,0,1,5.36,3.32,2.77,2.77,0,0,1,.79,1.68c.56,3.12,1,6.26,1.58,9.59-1.48-1.4-2.7-2.53-3.9-3.7A3.92,3.92,0,0,1,184.71,46.68ZM170.55,94.1l-.32-.19c.72-1.06.79-2.51,2.24-3.13Zm2.91-2.49-.33-.23c.38-2,2.05-3.1,3.26-4.51l.25.18Zm2.76,1.44c.85-1.68,1.71-3.12,2.33-4.66.74-1.87,2.48-2.2,3.53-2.73a29.1,29.1,0,0,0-2.14,2.51,13,13,0,0,0-1.63,3A2.68,2.68,0,0,1,176.22,93.05Zm6.41,8.06-2.09,1.74C180.89,100.69,180.89,100.69,182.63,101.11Zm2.9,13.14c-.5.67-1.32,1-1.87.46-2.2-2-4.16-4.2-4.44-7.4-.09-1.09.2-1.68,1.46-1.78v2.39l1.69.23-.49,1.41-.36.23c.62.31,1.3,1,1.83.87,1.83-.35,1.67-2.06,2-3.42A6.54,6.54,0,0,1,185.53,114.25Zm5.33-4.56-2.8-1.32C190.13,108,191,108.34,190.86,109.69Zm1.14-5.43c-.34.5-1.47.48-2,.61.51-.67,1.08-1.43,1.64-2.19s1.09-1.54,1.63-2.3l.28.13A19.81,19.81,0,0,1,192,104.26ZM21.78,163.16l2.34-1.1C23.77,163.46,22.9,163.58,21.78,163.16ZM54,184.09a5.87,5.87,0,0,1-2.8-2.28A24.78,24.78,0,0,1,49,177.06c-.87-2.29-1.6-4.63-2.38-6.89.34.47.76,1.06,1.19,1.64l.54-.42a10.63,10.63,0,0,0-1.07-1.75,6,6,0,0,0-1.58-1.07c-3.19-1.7-4.51-4.43-4.62-7.95a55.74,55.74,0,0,0-.59-6.17,6.92,6.92,0,0,0-.88-1.82l-.29.13q.59,2.67,1.15,5.35l-.36,0c-.74-1.28-1.51-2.54-2.23-3.82A6.39,6.39,0,0,1,40,145.72c.8-.53,1.64-1,2.5-1.51a41.45,41.45,0,0,1,3.84,2,40.06,40.06,0,0,1,3.4,2.78c-2.46,1.44-2.86,3.34-2.54,5.71a40.08,40.08,0,0,1,0,5.5,3.37,3.37,0,0,0,1.12-3,24.9,24.9,0,0,0-.34-3.1,3.42,3.42,0,0,1,2-4c2.43,4.61,2.74,9.86,4.49,14.74l-6-1.6-.19.23a3.84,3.84,0,0,0,.94.79,18.51,18.51,0,0,0,2.63.79,5.14,5.14,0,0,1,3.87,3.36c1.53,3.86,3.2,7.66,4.78,11.5a1.29,1.29,0,0,1-.17,1A6.81,6.81,0,0,1,56,183.71c2.18.67,3.47.07,5.33-2.43a2.4,2.4,0,0,1,.41.36,3.5,3.5,0,0,1,.25.55A7.85,7.85,0,0,1,54,184.09Zm12.5,9.08c-1,2.73-1.62,5.58-2.4,8.37,0,.07-.08.13-.36.17L65.21,189C66.33,190.26,67.15,191.37,66.5,193.17Z"/><polygon points="68.2 66.99 68.2 66.99 68.19 67 68.19 67 68.2 66.99"/><path d="M68.22,66.92l0,.07,0,0Z"/><path class="cls-1" d="M167.72,96.39Z"/><path d="M68.19,67h0a1.32,1.32,0,0,0-.31.36A1.17,1.17,0,0,1,68.19,67Z"/><polygon class="cls-1" points="182.4 89.89 182.42 89.91 182.4 89.89 182.4 89.89"/><path d="M64.2,220.59,64.05,219c0,.55,0,1.1-.08,1.64Z"/><path class="cls-1" d="M167.73,96.4l0,0,0,0Z"/><path d="M63.35,86.57c1.79-6.48,3.26-13,4.85-19.58h0C66.61,73.53,65.14,80.1,63.35,86.57Z"/><path class="cls-1" d="M19.6,112.1a21.54,21.54,0,0,1-11.86-3.94,7.12,7.12,0,0,1-2-2.32A18.52,18.52,0,0,1,3.58,93.92c1.14-6.5,3.33-12.43,8.82-16.62.26-.19.54-.37.81-.56a2.73,2.73,0,0,1-.82,1.05,15.15,15.15,0,0,0-5.1,8.62c-1.67,7.3-.85,13.87,5.65,18.72a14.12,14.12,0,0,0,9.63,3.19c-.12.28-.19.5-.3.7a41.18,41.18,0,0,0-4,11.9,38.58,38.58,0,0,0,.55,17.59c.31,1.07,1.15,2.1,1.11,3.12s-.87,2-1.36,3l.08.07,1.76-2.23,1.64,2.92a23.21,23.21,0,0,0-1-2.84,1.57,1.57,0,0,1,.05-1.09c.56-1.1,1.2-2.15,1.87-3.33.29.58.56,1.12.82,1.66-1.09-2-.09-3.78.31-5.67a70.37,70.37,0,0,0,1.5-9.32c.3-4.3.26-8.63.24-13a17,17,0,0,1,2-8.26q3.4-6.39,6.45-13a15.15,15.15,0,0,0,1.46-9.17,32.66,32.66,0,0,1-6.48,16c1-4.82.67-9.65.46-14.48-.33-7.38.25-14.63,2.81-21.62a1.66,1.66,0,0,0,0-.59c-1.67,3.17-3.38,6.29-4,9.83a2.32,2.32,0,0,1-1,1.28c-1.32.9-2.7,1.7-4.06,2.54l.15.24,4.64-2.12c-.08,1-.15,1.84-.2,2.42l-7,1.21,0,.19L28,75.88c.14,4.19.37,8.1.39,12a84.41,84.41,0,0,1-.4,8.85c-.25,2.42-.74,2.65-3,1.68-6-2.6-9.75-7-10.24-13.86-1.12,7.74,2.49,12.5,9.33,15.34a12.9,12.9,0,0,1-8.5-3.23c1.5,1.68,3.09,3.33,5.31,3.77a56.55,56.55,0,0,0,6.4.54,36.16,36.16,0,0,0-2.4,3.73c-.9,1.82-2.39,2.08-4.11,1.93-5.13-.45-11-5.51-12-10.57A20.69,20.69,0,0,1,12,80.15c-.33,2.72-.76,5.58-1,8.46-.3,3.63.87,7,2,8.39a25.87,25.87,0,0,1-.76-12.45c.6-4,1.39-7.82,4.62-10.65C19,72.06,21,70.13,23,68.23a11.12,11.12,0,0,0,.81-.87L23.64,67a6.72,6.72,0,0,0-1.53.52,13.07,13.07,0,0,0-4.75,4.82c-.35.64-.8,1.23-1.2,1.85a25.2,25.2,0,0,1,7.18-11c-3.28,1.66-5.36,4.42-6.95,7.64a4.64,4.64,0,0,1,.22-1.34c.11-.43.25-.85.33-1.28C18.11,61.37,22.4,56.93,28,53.55a9.65,9.65,0,0,1,8.3-1,3,3,0,0,1,.82.63,3.49,3.49,0,0,1-.94.23,7.82,7.82,0,0,0-6.5,3.18,10.73,10.73,0,0,1,7-1.57c-1.74,5-1.73,10.27-4,15a4.79,4.79,0,0,0,1.83-1.92,49.56,49.56,0,0,0,2-6.27c1.34-5.75,2.87-11.41,6.28-16.35,1-1.49,2.12-2.92,3.15-4.31a19.25,19.25,0,0,0-7.83,9.57c-3.79-2-5.7-1.72-9.91.16l2.63-.5C22,54.15,15.59,60.07,15.17,70.64c-.88-3.58.22-7,1.53-10.34a14.21,14.21,0,0,0-1.34,14.33c-2.77-.87-4-.59-6.25,1.14l4-.93A35.63,35.63,0,0,0,3,86,20.48,20.48,0,0,0,.05,95.26c-.54,7.38,3.3,13.14,10.31,15.34C13.36,111.55,16.38,112.45,19.6,112.1Zm3.17,23.16c-2.14-6.06-.88-19.37,2.26-24.53C25.34,122.11,24.54,131,22.77,135.26Zm1.7-27.87.41.08c-.18.48-.37,1-.55,1.43-2.25,5.73-3.94,11.61-3.67,17.82A47.25,47.25,0,0,0,22,134.94a4.55,4.55,0,0,1-.14,3.33c-.43.83-.76,1.72-1.14,2.58l-.33-.09C17.09,129.05,18.64,118,24.47,107.39Zm-19.89-21a57.82,57.82,0,0,0-1.64,6.35,24.07,24.07,0,0,0-.19,6.56,34.54,34.54,0,0,0,1.79,5.86C.77,102,.57,92.89,4.58,86.42Z"/><path class="cls-1" d="M99.59,106.68h0l0,0h0Z"/><path class="cls-1" d="M91.61,112.38h0a0,0,0,0,0,0,0Zm30.14,2.67c-.2-.29,0-.84,0-1.27l.27,0,1.83,2.78c0-2.33-2.43-4-1.44-6.88l7.53,8.9a3.58,3.58,0,0,0-.71-1.65c-.86-1.1-1.84-2.11-2.66-3.24a28.79,28.79,0,0,0-7.77-7.71,8.46,8.46,0,0,0-1.31-.56l-.39.33c1.71.5,1.12,1.41.75,2.45l-1.32-.84c.11-1,.21-1.94.34-3.22-.43,1.19-.74,2-1,2.82-1,.14-1.4-.31-1.63-1.13s-.69-1.81-1-2.72l-.29.1c0,.24.08.47.13.83a22.59,22.59,0,0,0-15.76,2.42c-5,2.62-9.35,6-11.5,11.55A4.18,4.18,0,0,0,86.79,117c.85-1.16,1.7-2.31,2.53-3.49a2.91,2.91,0,0,1,.26-.33,2.31,2.31,0,0,1,.36-.34,2.26,2.26,0,0,1,.38-.25l.26-.09a.34.34,0,0,1,.14,0l.15,0a2.29,2.29,0,0,1,.69,0h0s0,0,0,0l-.05,0-.95-.28c1.52-1.13,2.82-2.18,4.2-3.12a16.25,16.25,0,0,1,2.19-1v0h0a2.65,2.65,0,0,1,2.67-1.18l0,0h0a2.42,2.42,0,0,1,2.87-.87c.22.5.44,1,.64,1.51a1.73,1.73,0,0,1,0,.45c-1.52.73-2.33-.89-3.54-1.09l0,0c.52.58,1,1.17,1.55,1.76-1.77,1.33-1.77,1.32-3.2.1a9,9,0,0,0-1-.68h0L98.52,110c-1.41,1.07-2.62,2-3.88,2.92a1.4,1.4,0,0,1-1,0c-.56-.13-1.11-.31-1.66-.47l0,0h0a1.13,1.13,0,0,0,.21.12l0,0,1.5.85-4.07,4.93.32.26,2.11-2.26,1.26.93c-.79,1.18-1.49,2.34-2.31,3.41-1.21,1.6-1,2.58.91,3.38.68.29,1.33.66,1.92,1l-1.1,1.33a6.14,6.14,0,0,1,1,0c1.19.34,2.37.71,3.55,1a1.29,1.29,0,0,0,.67,0c.13-1.17.88-.66,1.5-.61s1.44,0,2.16,0c-1.54-.55-3.07-1-4.59-1.43s-3-.94-4.56-1.45c-2.07-.7-2.41-1.71-.89-3.27,4.1-4.23,8.68-7.8,14.29-9.84a23.65,23.65,0,0,1,2.45-.63c.13.63.24,1.09.3,1.56a12.36,12.36,0,0,0,4.72,8.07,4.51,4.51,0,0,0,6-.16c.59-.56,1.11-1.19,1.58-1.7,1.31,1.61-.29,3-.47,4.48l.28.15,1.62-2.3c.86.33,1.32-.22,1.45-1.14l1.36.46.42-.45a4.82,4.82,0,0,1-1.31-.77A37.14,37.14,0,0,1,121.75,115.05ZM94.43,125.57c1.33-.18,2.39.62,3.58,1l-.12.44-3.56-1C94.37,125.81,94.4,125.69,94.43,125.57Zm-.64-8.46-1.41-.85c.74-.75,1.43-1.43,2.29-2.28l1.08,1.07Zm2.71-2.52-1.44-1,3.49-2.6C99.37,113.27,97,113.22,96.5,114.59Zm4.11-3.45-.66-1,1.41-.74C102.14,110.57,101.46,110.86,100.61,111.14Zm4.27-1.67c-.21-.57-.32-.84-.47-1.24l1.66-.53.24.31ZM106,107a2.7,2.7,0,0,1-.6.21,2.11,2.11,0,0,1-.59.07,1.84,1.84,0,0,1-.33,0h0a1.57,1.57,0,0,1-.31-.08h0a1.55,1.55,0,0,1-.29-.14l-.17-.1a.1.1,0,0,1,0,0l0,0-.12-.1a6.56,6.56,0,0,1-.9-.92h0c.1-.22.17-.59.3-.62,1.69-.35,3.38-.64,5.15-1C107.78,106.14,107.3,106.4,106,107Zm4.94-2.46,2,.15c-.26,1.83-.34,1.89-1.86,1.6a6.73,6.73,0,0,1-.1-.67C110.88,105.3,110.89,105,110.89,104.53Zm-2.11,1.78c-.07-.56-.15-1.14-.24-1.8h1.68C110.55,106.15,110.26,106.53,108.78,106.31Zm9.58,13.29a3.47,3.47,0,0,1-3.32.34,6.48,6.48,0,0,1-4.15-4.61,26.62,26.62,0,0,1-.7-3.75c-.15-1.57,0-1.67,1.63-1.63a8.4,8.4,0,0,1,1,.11v1.33a2.82,2.82,0,0,1,.55.11c.3.12.58.27.88.41-.18.3-.28.72-.53.87a.93.93,0,0,0-.44,1.37,2.36,2.36,0,0,0,2.41,1.77,2.28,2.28,0,0,0,2.15-2,13.22,13.22,0,0,0,.15-1.78C121.11,113.9,121.32,117.67,118.36,119.6Zm2.3-8.7-1.42-3.45C121.59,108.44,122.05,109.38,120.66,110.9Zm-29,1.49a0,0,0,0,0,0,0h0Zm0,0h0a0,0,0,0,0,0,0Z"/><polygon class="cls-1" points="96.9 107.86 96.91 107.86 96.94 107.9 96.9 107.86"/><path class="cls-1" d="M92,112.47h0Z"/><path class="cls-1" d="M92.06,112.51s0,0-.06,0h0Z"/><path class="cls-1" d="M89.59,113.13a2.1,2.1,0,0,1,2.42-.65h0A2.09,2.09,0,0,0,89.59,113.13Z"/><path class="cls-1" d="M124.84,101.94a7.48,7.48,0,0,1,.77,0c2.7.22,3.58-.41,4.07-3.08.24-1.36.33-2.76.5-4.14l-.14-.06L128.31,99l-.92-5.14c-.17,2.7-.32,5.09-.46,7.48l-.52.06c.6-2.82-.36-5.27-1.47-7.89.25,2.21.48,4.22.7,6.24l-.31,0c-1.46-5.52-5.72-8.61-10-11.67a122.79,122.79,0,0,1,8.82,11.55l-.38.29-7.92-10.17-.16.13,2.66,4.62-.13.06-4.35-3.76,0,.07,6,7.85-.24.26L117,98q-4.28-1.87-8.55-3.77a2.54,2.54,0,0,1-.87-.61,18.37,18.37,0,0,0-10.41-5.91c-.31-.06-.61-.2-.92-.26-.71-.13-1.51-.51-2.12-.3-2.88,1-5.7,2.13-8.55,3.21-.8.3-1.86.22-2,1.49,0,.22-.46.4-.72.58l-1.39.94c3.51-1.69,7.26-1.62,11-1.76,5.09-.2,9.75,1.46,14.35,3.39,5,2.09,10,4.11,15,6.17a3.84,3.84,0,0,1,1.15.61,54.23,54.23,0,0,1,5,4.79,46.33,46.33,0,0,1,4.37,6.28c1.27,2.15,2.25,4.46,3.15,6.27C135.09,112,131.05,106.41,124.84,101.94ZM95.1,90.39l-4-.44.09-.62,4,.7C95.17,90.15,95.14,90.27,95.1,90.39Zm.11-1.45c2.5-.93,6,.39,8.71,3.47Zm24.36,8,2.78,3C120.13,99.51,120.08,99.46,119.57,97Z"/><path class="cls-1" d="M107.77,3.78c5.45-.4,10.94-.33,16.41-.55,3.19-.12,6.39-.27,9.56-.66,4.68-.56,9.34-1.31,14.08-1a125.49,125.49,0,0,1,19.47,3c-.56-.29-1.12-.59-1.7-.85a14.27,14.27,0,0,0-1.77-.72C156.16.66,148.38-.56,140.38.25c-3.58.36-7.13,1.08-10.71,1.25-5.43.27-10.87.28-16.31.25-8.31,0-15.83,2.58-23.08,6.55a2,2,0,0,0,.41-.09A49.81,49.81,0,0,1,107.77,3.78Z"/><path class="cls-1" d="M68.22,66.9A23.1,23.1,0,0,1,70,63.7c2.51-3.26,5.06-6.5,7.71-9.65A106.53,106.53,0,0,0,89.4,37.83a11.91,11.91,0,0,1,2.44-3c3.33-3,6.52-6,8.66-10a1.85,1.85,0,0,1,.41-.43A4.71,4.71,0,0,0,100,25c-2.17,2.24-4.28,4.54-6.48,6.75-.65.65-1.58,1-2.28,1.62-1.14,1-2.13,2.15-3.3,3.1-6.69,5.43-13.31,10.91-18.4,18-.29.39-.59.77-.89,1.16A179.66,179.66,0,0,1,88.2,37.94a3.21,3.21,0,0,1-.54,1.15c-3.06,4.1-5.9,8.39-9.24,12.24a95.4,95.4,0,0,0-14.4,21c-.11.23-.21.47-.31.7A4.27,4.27,0,0,0,64.52,72c1-1.6,2-3.2,3-4.78a.51.51,0,0,0,0-.1c.1-.23.22-.66.53-.37A.86.86,0,0,1,68.22,66.9Z"/><path d="M68.22,66.9A23.1,23.1,0,0,1,70,63.7a23.1,23.1,0,0,0-1.77,3.2Z"/><path d="M101,24.32l0,0h0Z"/><polygon points="68.22 66.9 68.22 66.9 68.22 66.9 68.22 66.91 68.22 66.9"/><path d="M68.25,66.94l0,0h0Z"/><path d="M68.07,66.73a.86.86,0,0,1,.15.17h0A.86.86,0,0,0,68.07,66.73Z"/><path d="M100.5,24.78a2.17,2.17,0,0,1,.45-.46l0,0A1.85,1.85,0,0,0,100.5,24.78Z"/><path d="M68.22,66.92h0l0,0Z"/><path class="cls-1" d="M114.82,22.7c3.37-.21,6.8,0,10-1.47a3,3,0,0,1,1.6,0c3,.57,6,1.17,9,1.76a.66.66,0,0,0-.47-.46,96.86,96.86,0,0,1-18.51-7.13,33.54,33.54,0,0,0-10.86-3.67,10.38,10.38,0,0,0-2.07.13v.41c7.68,1.34,14.16,5.55,21.14,8.59a7.75,7.75,0,0,1-1.8.29c-4.39.18-8.79.33-13.18.52-4.84.21-9.67.6-14.22,2.43a34.05,34.05,0,0,0-3.71,2C94.46,25.5,97,24.7,99.64,24c.39-.11.88.17,1.33.29a5.06,5.06,0,0,1,1.65-.81C106.68,23.17,110.75,23,114.82,22.7Z"/><path d="M102.62,23.48a5.06,5.06,0,0,0-1.65.81h0A4.92,4.92,0,0,1,102.62,23.48Z"/><path d="M101,24.29h0Z"/><path class="cls-1" d="M50,36.06A39.73,39.73,0,0,1,71.51,20.78c2.42-.69,4.86-1.34,7.22-2.21q4.44-1.62,8.73-3.61a15.39,15.39,0,0,0,2.83-2.18l-.19-.23c-2.61,1.07-5.17,2.26-7.84,3.16-4.12,1.39-8.33,2.52-12.47,3.86-8.3,2.68-15.27,7.09-19.41,15.14-.49.95-1.08,1.86-1.62,2.79A6.69,6.69,0,0,0,50,36.06Z"/><path class="cls-1" d="M172.89,185.53c-1.65.3-3.37.59-5.08.91a10.52,10.52,0,0,0-2.25.52,10.89,10.89,0,0,1-8,.57,6.69,6.69,0,0,0-5.09.46,6.7,6.7,0,0,1-1.67.56c-4.3.65-8.64,1.08-12.9,1.95a38.56,38.56,0,0,1-12,.66,1.94,1.94,0,0,1-.78-.17c-2.16-1.46-4.39-1.06-6.61-.21-.33.13-.51.62-.76.95a3.9,3.9,0,0,0,1.1.44,6.43,6.43,0,0,0,1.29-.21c1.47-.16,2.82-1.08,4.42-.49a18.12,18.12,0,0,0,8.64.73c4.74-.6,9.45-1.49,14.19-2.08,4.34-.54,8.71-.82,13.06-1.28,1.65-.17,3.3-.48,4.94-.78,1-.19,2-.59,3-.7C170.08,187.15,171.81,186.94,172.89,185.53Z"/><path class="cls-1" d="M167.58,163.64a11.2,11.2,0,0,1-2.59.41,24.28,24.28,0,0,0-8.14,1.55c-2.08.89-4.31,1.44-6.33,2.1a12.31,12.31,0,0,0,3.08,0c2.05-.5,4-1.26,6-1.9.49-.15,1-.22,1.56-.33.05.73.08,1.21.13,1.92.93-2.21,1-2.25,3.16-2.34a9.78,9.78,0,0,0,5.88-1.75,7.1,7.1,0,0,0,2.09-8.71c-1.82-4-3.62-8.09-5.44-12.13a3.85,3.85,0,0,0-.52-.7l-.34.15c.4,1.23.72,2.5,1.22,3.68,1.36,3.16,2.87,6.25,4.18,9.42A6.66,6.66,0,0,1,167.58,163.64Z"/><path class="cls-1" d="M169.4,196.3c-10.59,9-22.33,8.38-34.54,4.77.64.4,1.25.83,1.91,1.18a9,9,0,0,0,1.67.68,38.28,38.28,0,0,0,16.85,1.16,26.73,26.73,0,0,0,11.08-4.31A7.12,7.12,0,0,0,169.4,196.3Z"/><path class="cls-1" d="M43.58,102.55c-5.6,8.17-8.11,17.19-7.52,25.62.22-1.73.46-4.91,1-8,1.34-7.34,4.7-13.77,9-19.8C48.46,97,50.61,93.46,52.78,90a27.68,27.68,0,0,0,1.55-3.57l-.26-.12c-.8,1.46-1.51,3-2.42,4.35C49,94.63,46.29,98.59,43.58,102.55Z"/><path class="cls-1" d="M80.45,34.17a12.43,12.43,0,0,0,5.32-4.06C81.93,33,77.38,34.44,73,36.19a107.88,107.88,0,0,0-11.6,5.38c-3.57,1.94-6.39,4.9-9.08,7.93,6.32-6,13.79-10,21.93-12.87C76.33,35.89,78.42,35.09,80.45,34.17Z"/><path class="cls-1" d="M39.51,67.8c-2.24,2.12-5.16,6.84-5.73,9,.23-.35.41-.61.59-.87a47,47,0,0,1,10.93-12,15,15,0,0,0,2.86-2.71,27.87,27.87,0,0,0,2-3.43l-.36-.18A16.73,16.73,0,0,1,45.15,63C43.23,64.53,41.3,66.09,39.51,67.8Z"/><path class="cls-1" d="M134.7,151a16,16,0,0,0-2.18,2.34,15.42,15.42,0,0,0-2,8.73c.11,3.73,3.82,7.15,7.59,6.55-.86-.34-1.67-.64-2.45-1a7.07,7.07,0,0,1-4.39-6.9,16.44,16.44,0,0,1,3.73-9.43Z"/><path class="cls-1" d="M76.62,189.28c-2.25-5.67-4.63-11.64-7-17.45C70.7,178.15,72.15,184.49,76.62,189.28Z"/><path class="cls-1" d="M147.14,10.55a41.16,41.16,0,0,1,12,12.31C156.78,16.88,153.22,12.48,147.14,10.55Z"/><path class="cls-1" d="M150.62,180.45c-6.64-.57-11.24,3.55-16.38,6.24,2.94-.48,5.26-2.4,7.95-3.46S147.66,181.41,150.62,180.45Z"/><path class="cls-1" d="M169.57,14.13c.12,7.21-.22,9.4-2.09,13.58C170.93,24.75,172,17.75,169.57,14.13Z"/><path class="cls-1" d="M137.6,165.55c-.7.43-.88,1.1.2,1.73.08-1.41,1.09-1.46,1.91-1.49,1.95,0,3.9,0,5.86.08,1.27,0,2.54.21,3.81.31a4,4,0,0,0-2.14-1c-2.46-.19-4.93-.3-7.4-.31A4.58,4.58,0,0,0,137.6,165.55Z"/><path class="cls-1" d="M142.41,10.05c3.32,2.83,7.13,6.06,10.47,8.89C150.41,15.09,147.08,11.3,142.41,10.05Z"/><path class="cls-1" d="M162.47,11.81c1.37,4.92,3.52,9.31,3.92,14.41C167,20.86,165.26,16.36,162.47,11.81Z"/><path class="cls-1" d="M174.42,184.38a23.11,23.11,0,0,0,3.13-.43,10,10,0,0,0,2.43-1.14.78.78,0,0,0-.65-1.37,8.84,8.84,0,0,0-5,2.61Z"/><path class="cls-1" d="M155.07,208.47c2.13-.21,4.27-.33,6.41-.49-4.39-.82-8.69-.81-12.77,1.23C150.82,209,152.94,208.67,155.07,208.47Z"/><path class="cls-1" d="M116.92,97.61l0-.14a1.23,1.23,0,0,0-.19-.47,44.66,44.66,0,0,0-3.59-4.6A38.78,38.78,0,0,0,109,89.13c2.12,2.5,4.34,4.85,6.55,7.2.51.55,1,1.12,1.48,1.67h0Z"/><path class="cls-1" d="M116.89,97.47l0,.14Z"/><path class="cls-1" d="M156.35,12.7c1.38,3.39,2.71,6.64,3.87,9.47A12.11,12.11,0,0,0,156.35,12.7Z"/><path class="cls-1" d="M158.74,197.91c-4,1.29-7.82.74-11.61.89C151,199.76,154.82,200.21,158.74,197.91Z"/><path class="cls-1" d="M152.69,180.61a3.86,3.86,0,0,0-.77-.11l-.13.23c.28.22.54.59.85.63a13,13,0,0,0,3.71.26,28.51,28.51,0,0,0,4.39-1.44,12.79,12.79,0,0,0-3.72.35A6.76,6.76,0,0,1,152.69,180.61Z"/><path class="cls-1" d="M152.24,175.21c.14-2.32.89-4.67.15-7l-.69,0C152,170.57,150.91,172.9,152.24,175.21Z"/><path class="cls-1" d="M185,86.44a19.11,19.11,0,0,0-2.47,3.37l6.31-5.45A14.06,14.06,0,0,0,185,86.44Z"/><path class="cls-1" d="M182.49,89.81l-.09.08h0Z"/><path class="cls-1" d="M182.44,89.89h0Z"/><path class="cls-1" d="M188.8,84.36l-6.31,5.45h0Z"/><path class="cls-1" d="M182.4,89.89l0,0,0,0Z"/><path class="cls-1" d="M102.41,88.38l8.48,5.73C108.58,91,105.42,89.51,102.41,88.38Z"/><path class="cls-1" d="M142.08,23.19,132,18.72C135.1,20.52,138,22.86,142.08,23.19Z"/><path class="cls-1" d="M106.46,126.6a26.26,26.26,0,0,0,10.64-2.28Z"/><path class="cls-1" d="M183.15,170.5l-5.87-5c1.28,2.41,3.67,3.59,5.63,5.25Z"/><path class="cls-1" d="M144.82,157.55l-2.2-5.32C143.1,156.09,143.41,156.92,144.82,157.55Z"/><path class="cls-1" d="M106.44,127.65l4.85-.45-.05-.42-4.83.46Z"/><path class="cls-1" d="M147.56,21.21l-4.28-2.13-.13.28,4.27,2.19Z"/><path class="cls-1" d="M154.93,178.88c1-.07,2.11-.08,2.48-1.7Z"/><path class="cls-1" d="M180,88.17a27.51,27.51,0,0,1,2.13-2.51c-1.05.53-2.78.86-3.53,2.73-.62,1.54-1.47,3-2.32,4.66a2.67,2.67,0,0,0,2.08-1.85A13.07,13.07,0,0,1,180,88.17Z"/><path class="cls-1" d="M167.74,96.35l0,0,0,0Z"/><polygon class="cls-1" points="167.75 96.37 167.72 96.39 167.72 96.39 167.75 96.37"/><path class="cls-1" d="M92,112.48Z"/><path class="cls-1" d="M96.94,107.9l0,0,0,0Z"/><path class="cls-1" d="M96.91,107.86h0l0,0h0Z"/><path class="cls-1" d="M91.49,112.33l-.95-.28Z"/><path class="cls-1" d="M99.62,106.71h0l0,0Z"/><path class="cls-1" d="M97,107.89l0,0,0,0Z"/><path class="cls-1" d="M99.62,106.71h0c.51.58,1,1.17,1.55,1.76C100.64,107.88,100.13,107.29,99.62,106.71Z"/><path class="cls-1" d="M102.51,105.82h0l0,0Z"/><polygon class="cls-1" points="102.53 105.83 102.5 105.8 102.53 105.83 102.53 105.83"/><polygon class="cls-1" points="99.59 106.68 99.59 106.68 99.59 106.68 99.59 106.68"/><path class="cls-1" d="M102.5,105.8l0,0h0l0,0v0h0Z"/><path class="cls-1" d="M99.63,106.69h0l0,0S99.63,106.7,99.63,106.69Z"/><path class="cls-1" d="M102.53,105.83l0,0,0,0Z"/><polygon class="cls-1" points="99.62 106.71 99.59 106.68 99.59 106.68 99.59 106.68 99.62 106.71"/><path class="cls-1" d="M47.87,167.34l2.94,1.89C50.14,167.48,49.24,166.88,47.87,167.34Z"/></g></g></svg>