<svg xmlns="http://www.w3.org/2000/svg" viewBox="0 0 248.03 140.7"><defs><style>.cls-1{isolation:isolate;}.cls-2{mix-blend-mode:multiply;opacity:0.2;}.cls-3{fill:#8fa78f;}.cls-4{fill:#f2f2be;}.cls-5{fill:#ccc69c;}</style></defs><g class="cls-1"><g id="Layer_2" data-name="Layer 2"><g id="Layer_4" data-name="Layer 4"><g class="cls-2"><polygon class="cls-3" points="62.28 44.31 62.28 45.22 39.7 45.22 39.7 44.31 45.39 44.31 40.9 9.45 28.9 45.51 25.77 45.51 11.5 9.39 9.96 44.31 15.82 44.31 15.82 45.22 2 45.22 2 44.31 5.64 44.31 10.64 7.4 10.64 7.35 5.53 4.27 22.93 4.27 32.88 30.38 39.19 4.27 58.41 4.27 53.3 7.35 57.96 44.31 62.28 44.31"/><polygon class="cls-3" points="65.59 44.31 68.43 44.31 68.43 23.55 65.19 20.77 79.8 15.65 79.8 44.31 82.65 44.31 82.65 45.22 65.59 45.22 65.59 44.31"/><path class="cls-3" d="M67.81,8.31C67.81,4.56,70.08,2,74.12,2s6.31,2.56,6.31,6.31-2.27,6.37-6.31,6.37S67.81,12.12,67.81,8.31Z"/><path class="cls-3" d="M112.33,44.31V28.56c0-8.25-3.81-12.34-11-12.34-5.69,0-9.91,2.33-13.77,6.65l.29.28A9.46,9.46,0,0,1,94.15,21c4.31,0,6.82,3.13,6.82,9.38-9.45,1-15,4.5-15,9.73,0,3.59,2.51,5.69,6.2,5.69,3.13,0,6.13-1.53,8.82-3.81v3.24h14.2v-.91ZM101,41.18a5.51,5.51,0,0,1-1.31.17c-2.28,0-3.41-1.42-3.41-4.09,0-3,1.31-5.18,4.72-6.15Z"/><polygon class="cls-3" points="173.75 44.26 178.3 44.26 178.3 45.17 156.69 45.17 156.69 44.26 161.24 44.26 161.24 23.95 147.82 23.95 147.82 44.26 152.37 44.26 152.37 45.17 130.76 45.17 130.76 44.26 135.31 44.26 135.31 7.23 130.25 4.22 152.88 4.22 147.82 7.23 147.82 22.93 161.24 22.93 161.24 7.23 156.18 4.22 178.81 4.22 173.75 7.23 173.75 44.26"/><path class="cls-3" d="M215.5,44.26v.91H201.28V40.79c-3.75,2.73-7,5-10.18,5-5.12,0-7.33-3-7.33-9.72V23.84l-3.25-2.79,14.62-5.11V33.79c0,4.78.4,6.66,3.24,6.66a9,9,0,0,0,2.9-.57V23.56L198,20.77l14.62-5.12V44.26Z"/><path class="cls-3" d="M245.18,44.25V28.5c0-8.25-3.81-12.34-11-12.34-5.69,0-9.91,2.34-13.76,6.65l.28.29A9.47,9.47,0,0,1,227,20.93c4.31,0,6.82,3.13,6.82,9.39-9.45,1-15,4.5-15,9.73,0,3.59,2.51,5.69,6.21,5.69,3.12,0,6.13-1.54,8.81-3.81v3.24H248v-.92Zm-11.36-3.13a5.61,5.61,0,0,1-1.31.18c-2.27,0-3.41-1.42-3.41-4.09,0-3,1.31-5.19,4.72-6.15Z"/></g><polygon class="cls-4" points="60.28 42.31 60.28 43.22 37.7 43.22 37.7 42.31 43.39 42.31 38.9 7.45 26.9 43.51 23.77 43.51 9.5 7.39 7.96 42.31 13.82 42.31 13.82 43.22 0 43.22 0 42.31 3.64 42.31 8.64 5.4 8.64 5.35 3.52 2.27 20.93 2.27 30.88 28.38 37.19 2.27 56.41 2.27 51.3 5.35 55.96 42.31 60.28 42.31"/><polygon class="cls-4" points="63.59 42.31 66.43 42.31 66.43 21.55 63.19 18.77 77.8 13.65 77.8 42.31 80.65 42.31 80.65 43.22 63.59 43.22 63.59 42.31"/><path class="cls-4" d="M65.81,6.31C65.81,2.56,68.08,0,72.12,0s6.31,2.56,6.31,6.31-2.27,6.37-6.31,6.37S65.81,10.12,65.81,6.31Z"/><path class="cls-4" d="M110.33,42.31V26.56c0-8.25-3.81-12.34-11-12.34-5.69,0-9.91,2.33-13.77,6.65l.29.28A9.46,9.46,0,0,1,92.15,19C96.46,19,99,22.12,99,28.37c-9.45,1-15,4.5-15,9.73,0,3.59,2.51,5.69,6.2,5.69,3.13,0,6.13-1.53,8.82-3.81v3.24h14.2v-.91ZM99,39.18a5.51,5.51,0,0,1-1.31.17c-2.28,0-3.41-1.42-3.41-4.09,0-3,1.31-5.18,4.72-6.15Z"/><polygon class="cls-4" points="171.75 42.26 176.3 42.26 176.3 43.17 154.69 43.17 154.69 42.26 159.24 42.26 159.24 21.95 145.82 21.95 145.82 42.26 150.37 42.26 150.37 43.17 128.76 43.17 128.76 42.26 133.31 42.26 133.31 5.23 128.25 2.22 150.88 2.22 145.82 5.23 145.82 20.93 159.24 20.93 159.24 5.23 154.18 2.22 176.81 2.22 171.75 5.23 171.75 42.26"/><path class="cls-4" d="M213.5,42.26v.91H199.28V38.79c-3.75,2.73-7,5-10.18,5-5.12,0-7.33-3-7.33-9.72V21.84l-3.25-2.79,14.62-5.11V31.79c0,4.78.4,6.66,3.24,6.66a9,9,0,0,0,2.9-.57V21.56L196,18.77l14.62-5.12V42.26Z"/><path class="cls-4" d="M243.18,42.25V26.5c0-8.25-3.81-12.34-11-12.34-5.69,0-9.91,2.34-13.76,6.65l.28.29A9.47,9.47,0,0,1,225,18.93c4.31,0,6.82,3.13,6.82,9.39-9.45,1-15,4.5-15,9.73,0,3.59,2.51,5.69,6.21,5.69,3.12,0,6.13-1.54,8.81-3.81v3.24H246v-.92Zm-11.36-3.13a5.61,5.61,0,0,1-1.31.18c-2.27,0-3.41-1.42-3.41-4.09,0-3,1.31-5.19,4.72-6.15Z"/><g class="cls-2"><path class="cls-3" d="M48.23,82.86c0-7.85,5.22-14.14,14.21-14.14a21,21,0,0,1,10,2.33l-3,11.12h-.08C64.84,74.17,61,70.4,57.87,70.4c-1.87,0-3.35,1.56-3.35,4.92,0,6.7,5.18,16.53,11.73,21.56V87.24l-3.43-2.82H74.25v9.76a16.48,16.48,0,0,1-10.44,3.5C54.13,97.68,48.23,91.36,48.23,82.86Z"/><path class="cls-3" d="M94.49,77.56v10.1h0c-4-4.38-5.75-5.37-7.09-5.14V96.31h2.86v.61H77.84v-.61h1.9V82.48l-2.17-1.87,9.79-3.28V82.1c2.17-2.86,4.65-4.65,6.4-4.65A2.43,2.43,0,0,1,94.49,77.56Z"/><path class="cls-3" d="M113.93,96.31V85.75c0-5.51-2.56-8.27-7.36-8.27-3.81,0-6.63,1.57-9.22,4.47l.19.19a6.31,6.31,0,0,1,4.19-1.45c2.89,0,4.57,2.1,4.57,6.29-6.33.68-10,3-10,6.51,0,2.4,1.67,3.81,4.15,3.81a9.34,9.34,0,0,0,5.9-2.55v2.17h9.53v-.61Zm-7.63-2.09a4.45,4.45,0,0,1-.87.1c-1.53,0-2.29-.95-2.29-2.74a3.9,3.9,0,0,1,3.16-4.12Z"/><path class="cls-3" d="M134.34,77.48c-2.24,0-4.6,1.34-6.62,3.4V77.1l-9.79,3.43,2.17,1.87v23.43h-1.91v.61h12.58v-.61h-3.05v-9.9a8.24,8.24,0,0,0,4.57,1.37c5.15,0,8.84-4.08,8.84-10.79C141.13,80.62,138.2,77.48,134.34,77.48Zm-4.76,18.37a3.26,3.26,0,0,1-1.86-.57V81.41a4.08,4.08,0,0,1,1.6-.38c2.55,0,3.66,2.55,3.66,7.66C133,93.27,131.57,95.85,129.58,95.85Z"/><path class="cls-3" d="M167.58,96.31v.61H156.53v-.61h1.52V84.84c0-3-.72-4-2.29-4a5.64,5.64,0,0,0-2.28.57V96.31H155v.61H144v-.61h1.91V73.64l-2.17-1.87,9.79-3.43V80.92c2.48-2.14,4.69-3.62,7.28-3.62,3.24,0,4.91,2,4.91,5.9V96.31Z"/><polygon class="cls-3" points="169.94 96.31 171.85 96.31 171.85 82.4 169.68 80.53 179.47 77.11 179.47 96.31 181.37 96.31 181.37 96.92 169.94 96.92 169.94 96.31"/><path class="cls-3" d="M171.43,72.19a4.23,4.23,0,1,1,4.23,4.27A3.92,3.92,0,0,1,171.43,72.19Z"/><path class="cls-3" d="M184.35,87.77a10.05,10.05,0,0,1,10.51-10.28,17.62,17.62,0,0,1,6.56,1.22l-1.49,10.63h0C196.35,82.63,193,79,190.75,79c-1,0-1.53.69-1.53,2.06,0,6.14,6,12.61,11.4,12.61a3.42,3.42,0,0,0,1.14-.15l0,0c-1.72,2.59-4.5,3.77-7.89,3.77A9.21,9.21,0,0,1,184.35,87.77Z"/><path class="cls-3" d="M78.14,103.5H64.69l3.39,2.06v24.77H65v.61H77.65c10.06,0,16.34-5,16.34-14.06C94,108.19,88.16,103.5,78.14,103.5Zm-1.06,26.83h-.61V104.11h1c5,0,7.81,4.46,7.81,12.81S82,130.33,77.08,130.33Z"/><path class="cls-3" d="M114.88,127.48a5.73,5.73,0,0,1-1.11.1,11.28,11.28,0,0,1-7.46-3.53c4.57-1.72,7-4.5,7-7.67,0-2.78-2.47-4.88-6-4.88-6.1,0-9.84,4.62-9.84,10.18,0,5.9,4.43,9.64,9.8,9.64,3.54,0,6.09-1.37,7.69-3.81Zm-12.73-12.39c0-1.41.57-2.25,1.56-2.25,1.64,0,3.86,2.82,3.86,6.14a7.39,7.39,0,0,1-1.5,4.83A13.08,13.08,0,0,1,102.15,115.09Z"/><path class="cls-3" d="M117.2,130.33l1.19-6.21h0l4.73,6.32a3.68,3.68,0,0,0,1.26.19c1.67,0,2.82-.87,2.82-2.43,0-1.15-.69-1.79-2.29-2.63l-2.52-1.34c-3.16-1.67-4.68-3.46-4.68-6.36,0-3.85,3.12-6.36,8.19-6.36a17.76,17.76,0,0,1,6.32,1.1l-1.48,6h0l-4.42-6.28a1.87,1.87,0,0,0-.65-.12c-1.67,0-2.51,1-2.51,2,0,1.33.61,2.29,2.86,3.47l2.85,1.52c2.63,1.41,4,3.32,4,5.68,0,4-4,6.4-8.68,6.4A24.64,24.64,0,0,1,117.2,130.33Z"/><polygon class="cls-3" points="135.11 130.33 137.02 130.33 137.02 116.42 134.85 114.56 144.64 111.13 144.64 130.33 146.54 130.33 146.54 130.94 135.11 130.94 135.11 130.33"/><path class="cls-3" d="M136.6,106.21a4.23,4.23,0,1,1,4.23,4.27A3.92,3.92,0,0,1,136.6,106.21Z"/><path class="cls-3" d="M169.71,109.45c-2.28,1.19-4.38,2.24-6.43,3.36a9.44,9.44,0,0,0-5.07-1.31c-5.53,0-8.73,3.36-8.73,7.55a7,7,0,0,0,2.74,5.76c-2.25,2.29-3.12,4.11-3.12,6.2a4.55,4.55,0,0,0,1.22,3.36c-1.6.61-2.52,1.64-2.52,2.78,0,2.4,2.74,3.55,8.35,3.55,7,0,11.73-2.83,11.73-7.17,0-3.31-2.4-4.69-6.82-4.69h-4.38c-3.31,0-4.5-1.6-4.12-3.77a10,10,0,0,0,5.53,1.56c5.26,0,8.42-3.24,8.42-7.54a7.12,7.12,0,0,0-2.75-6,23.53,23.53,0,0,1,6,2.64l0,0v-6.25Zm-14.29,26.48h4.12c3,0,4.12.46,4.12,1.34,0,1.41-2.33,2.47-5.26,2.47-3.89,0-6.94-1.64-7.86-5.18A7.4,7.4,0,0,0,155.42,135.93Zm5.45-10.4c-1.14,0-2.59-1.22-4.8-5.29-1.53-2.83-2.29-4.69-2.29-6a1.51,1.51,0,0,1,1.49-1.67c1.18,0,2.51,1.29,4.77,5.29,1.59,2.86,2.28,4.81,2.28,6S161.75,125.53,160.87,125.53Z"/><path class="cls-3" d="M195.24,130.33v.61H184.19v-.61h1.53V118.86c0-3-.73-4-2.29-4a5.64,5.64,0,0,0-2.28.57v14.86h1.52v.61h-11v-.61h1.9V116.42l-2.17-1.86,9.8-3.43v3.81c2.47-2.14,4.68-3.62,7.27-3.62,3.24,0,4.92,2,4.92,5.9v13.11Z"/></g><path class="cls-5" d="M46.23,80.86c0-7.85,5.22-14.14,14.21-14.14a21,21,0,0,1,10,2.33l-3,11.12h-.08C62.84,72.17,59,68.4,55.87,68.4c-1.87,0-3.35,1.56-3.35,4.92,0,6.7,5.18,16.53,11.73,21.56V85.24l-3.43-2.82H72.25v9.76a16.48,16.48,0,0,1-10.44,3.5C52.13,95.68,46.23,89.36,46.23,80.86Z"/><path class="cls-5" d="M92.49,75.56v10.1h0c-4-4.38-5.75-5.37-7.09-5.14V94.31h2.86v.61H75.84v-.61h1.9V80.48l-2.17-1.87,9.79-3.28V80.1c2.17-2.86,4.65-4.65,6.4-4.65A2.43,2.43,0,0,1,92.49,75.56Z"/><path class="cls-5" d="M111.93,94.31V83.75c0-5.51-2.56-8.27-7.36-8.27-3.81,0-6.63,1.57-9.22,4.47l.19.19a6.31,6.31,0,0,1,4.19-1.45c2.89,0,4.57,2.1,4.57,6.29-6.33.68-10,3-10,6.51,0,2.4,1.67,3.81,4.15,3.81a9.34,9.34,0,0,0,5.9-2.55v2.17h9.53v-.61Zm-7.63-2.09a4.45,4.45,0,0,1-.87.1c-1.53,0-2.29-.95-2.29-2.74a3.9,3.9,0,0,1,3.16-4.12Z"/><path class="cls-5" d="M132.34,75.48c-2.24,0-4.6,1.34-6.62,3.4V75.1l-9.79,3.43,2.17,1.87v23.43h-1.91v.61h12.58v-.61h-3.05v-9.9a8.24,8.24,0,0,0,4.57,1.37c5.15,0,8.84-4.08,8.84-10.79C139.13,78.62,136.2,75.48,132.34,75.48Zm-4.76,18.37a3.26,3.26,0,0,1-1.86-.57V79.41a4.08,4.08,0,0,1,1.6-.38c2.55,0,3.66,2.55,3.66,7.66C131,91.27,129.57,93.85,127.58,93.85Z"/><path class="cls-5" d="M165.58,94.31v.61H154.53v-.61h1.52V82.84c0-3-.72-4-2.29-4a5.64,5.64,0,0,0-2.28.57V94.31H153v.61H142v-.61h1.91V71.64l-2.17-1.87,9.79-3.43V78.92c2.48-2.14,4.69-3.62,7.28-3.62,3.24,0,4.91,2,4.91,5.9V94.31Z"/><polygon class="cls-5" points="167.94 94.31 169.85 94.31 169.85 80.4 167.68 78.53 177.47 75.11 177.47 94.31 179.37 94.31 179.37 94.92 167.94 94.92 167.94 94.31"/><path class="cls-5" d="M169.43,70.19a4.23,4.23,0,1,1,4.23,4.27A3.92,3.92,0,0,1,169.43,70.19Z"/><path class="cls-5" d="M182.35,85.77a10.05,10.05,0,0,1,10.51-10.28,17.62,17.62,0,0,1,6.56,1.22l-1.49,10.63h0C194.35,80.63,191,77,188.75,77c-1,0-1.53.69-1.53,2.06,0,6.14,6,12.61,11.4,12.61a3.42,3.42,0,0,0,1.14-.15l0,0c-1.72,2.59-4.5,3.77-7.89,3.77A9.21,9.21,0,0,1,182.35,85.77Z"/><path class="cls-5" d="M76.14,101.5H62.69l3.39,2.06v24.77H63v.61H75.65c10.06,0,16.34-5,16.34-14.06C92,106.19,86.16,101.5,76.14,101.5Zm-1.06,26.83h-.61V102.11h1c5,0,7.81,4.46,7.81,12.81S80,128.33,75.08,128.33Z"/><path class="cls-5" d="M112.88,125.48a5.73,5.73,0,0,1-1.11.1,11.28,11.28,0,0,1-7.46-3.53c4.57-1.72,7-4.5,7-7.67,0-2.78-2.47-4.88-6-4.88-6.1,0-9.84,4.62-9.84,10.18,0,5.9,4.43,9.64,9.8,9.64,3.54,0,6.09-1.37,7.69-3.81Zm-12.73-12.39c0-1.41.57-2.25,1.56-2.25,1.64,0,3.86,2.82,3.86,6.14a7.39,7.39,0,0,1-1.5,4.83A13.08,13.08,0,0,1,100.15,113.09Z"/><path class="cls-5" d="M115.2,128.33l1.19-6.21h0l4.73,6.32a3.68,3.68,0,0,0,1.26.19c1.67,0,2.82-.87,2.82-2.43,0-1.15-.69-1.79-2.29-2.63l-2.52-1.34c-3.16-1.67-4.68-3.46-4.68-6.36,0-3.85,3.12-6.36,8.19-6.36a17.76,17.76,0,0,1,6.32,1.1l-1.48,6h0l-4.42-6.28a1.87,1.87,0,0,0-.65-.12c-1.67,0-2.51,1-2.51,2,0,1.33.61,2.29,2.86,3.47l2.85,1.52c2.63,1.41,4,3.32,4,5.68,0,4-4,6.4-8.68,6.4A24.64,24.64,0,0,1,115.2,128.33Z"/><polygon class="cls-5" points="133.11 128.33 135.02 128.33 135.02 114.42 132.85 112.56 142.64 109.13 142.64 128.33 144.54 128.33 144.54 128.94 133.11 128.94 133.11 128.33"/><path class="cls-5" d="M134.6,104.21a4.23,4.23,0,1,1,4.23,4.27A3.92,3.92,0,0,1,134.6,104.21Z"/><path class="cls-5" d="M167.71,107.45c-2.28,1.19-4.38,2.24-6.43,3.36a9.44,9.44,0,0,0-5.07-1.31c-5.53,0-8.73,3.36-8.73,7.55a7,7,0,0,0,2.74,5.76c-2.25,2.29-3.12,4.11-3.12,6.2a4.55,4.55,0,0,0,1.22,3.36c-1.6.61-2.52,1.64-2.52,2.78,0,2.4,2.74,3.55,8.35,3.55,7,0,11.73-2.83,11.73-7.17,0-3.31-2.4-4.69-6.82-4.69h-4.38c-3.31,0-4.5-1.6-4.12-3.77a10,10,0,0,0,5.53,1.56c5.26,0,8.42-3.24,8.42-7.54a7.12,7.12,0,0,0-2.75-6,23.53,23.53,0,0,1,6,2.64l0,0v-6.25Zm-14.29,26.48h4.12c3,0,4.12.46,4.12,1.34,0,1.41-2.33,2.47-5.26,2.47-3.89,0-6.94-1.64-7.86-5.18A7.4,7.4,0,0,0,153.42,133.93Zm5.45-10.4c-1.14,0-2.59-1.22-4.8-5.29-1.53-2.83-2.29-4.69-2.29-6a1.51,1.51,0,0,1,1.49-1.67c1.18,0,2.51,1.29,4.77,5.29,1.59,2.86,2.28,4.81,2.28,6S159.75,123.53,158.87,123.53Z"/><path class="cls-5" d="M193.24,128.33v.61H182.19v-.61h1.53V116.86c0-3-.73-4-2.29-4a5.64,5.64,0,0,0-2.28.57v14.86h1.52v.61h-11v-.61h1.9V114.42l-2.17-1.86,9.8-3.43v3.81c2.47-2.14,4.68-3.62,7.27-3.62,3.24,0,4.92,2,4.92,5.9v13.11Z"/></g></g></g></svg>