<svg xmlns="http://www.w3.org/2000/svg" viewBox="0 0 199.35 189.62"><defs><style>.cls-1{fill:#f2f2be;}.cls-2{fill:#ccc69c;}</style></defs><g id="Layer_2" data-name="Layer 2"><g id="Layer_1-2" data-name="Layer 1"><text/><path class="cls-1" d="M51.93,155.75c-4,0-7.23-2.41-7.23-6s3.25-6,7.23-6a8.31,8.31,0,0,1,5,1.63l-1.61,1.48a5,5,0,0,0-3.07-1.25c-1.82,0-3.08,1.05-3.08,4.14S50.41,154,52.44,154a2.55,2.55,0,0,0,.91-.11v-3.27H51.5v-1.92h5.43v5.42A8.4,8.4,0,0,1,51.93,155.75Z"/><path class="cls-1" d="M70.9,155.38,68,151.55a.82.82,0,0,0-.77-.36v4.19H63.12V144.11h5.56c3.14,0,5.47.63,5.47,3.06a3.6,3.6,0,0,1-2.64,3.3l3.88,4.77v.14Zm-2.71-9.56h-1v3.94c2.1,0,2.74-.93,2.74-2.12A1.74,1.74,0,0,0,68.19,145.82Z"/><path class="cls-1" d="M87.34,155.38l-.79-2H82.17l-.77,2H78.59v-.14l4.73-11.13h4.16l4.31,11.13v.14Zm-2.94-8.16-1.55,4.18h3Z"/><path class="cls-1" d="M102.58,151.29h-1.42v4.09H97.09V144.11h5.56c2.69,0,5.47.35,5.47,3.6S104.24,151.29,102.58,151.29Zm-.42-5.47h-1v3.94c2.1,0,2.75-.93,2.75-2.12A1.69,1.69,0,0,0,102.16,145.82Z"/><path class="cls-1" d="M121.73,155.38v-4.72h-4.19v4.72h-4.09V144.11h4.09v4.56h4.19v-4.56h4.09v11.27Z"/><path class="cls-1" d="M132.66,155.38V144.11h4.08v11.27Z"/><path class="cls-1" d="M149.73,155.75c-4,0-7.22-2.41-7.22-6s3.22-6,7.22-6a8,8,0,0,1,4.92,1.63l-1.59,1.47a5.07,5.07,0,0,0-3.05-1.19c-2.71,0-3,2.59-3,4.09s.33,4,3,4a5,5,0,0,0,3.05-1.15l1.59,1.47A8,8,0,0,1,149.73,155.75Z"/><path class="cls-1" d="M59.28,172.66H53.53V161.39h5.75c3.22,0,6.61,1.54,6.61,5.38S62.58,172.66,59.28,172.66Zm-.75-9.56H57.6V171h.93c1.83,0,3.13-1.12,3.13-4.32C61.66,164.2,60.36,163.1,58.53,163.1Z"/><path class="cls-1" d="M80.32,172.66H71.64V161.39h8.07l.84,1.89v.14H75.74V166h4.81v2H75.74v2.69h5.44v.14Z"/><path class="cls-1" d="M91.73,173a7.4,7.4,0,0,1-5.66-2.22l1.63-1.36a6.39,6.39,0,0,0,4,1.78c.6,0,2-.07,2-.86,0-1-1.59-1.22-3.21-1.69s-4.21-1.16-4.21-3.67c0-3.16,3.32-4,5.57-4A6.93,6.93,0,0,1,97,162.81l-1.57,1.29a6,6,0,0,0-3.45-1.29c-.91,0-2,.17-2,.92s1.26.91,3.27,1.49c1.78.5,4.37,1.4,4.37,3.91C97.59,171.89,94.72,173,91.73,173Z"/><path class="cls-1" d="M103.39,172.66V161.39h4.09v11.27Z"/><path class="cls-1" d="M120.48,173c-4,0-7.23-2.41-7.23-6s3.25-6,7.23-6a8.33,8.33,0,0,1,5,1.63l-1.61,1.48a5,5,0,0,0-3.08-1.25c-1.81,0-3.07,1.05-3.07,4.14s1.24,4.23,3.27,4.23a2.64,2.64,0,0,0,.91-.11v-3.27H120V166h5.44v5.42A8.42,8.42,0,0,1,120.48,173Z"/><path class="cls-1" d="M141.47,172.66l-7.24-5.76v5.76h-2.56V161.39h2.27l7.42,6v-6H144v11.27Z"/><polygon class="cls-2" points="50.16 130.99 50.16 131.75 31.38 131.75 31.38 130.99 36.11 130.99 32.37 101.98 22.38 131.99 19.78 131.99 7.9 101.94 6.63 130.99 11.5 130.99 11.5 131.75 0 131.75 0 130.99 3.03 130.99 7.19 100.28 7.19 100.23 2.93 97.67 17.41 97.67 25.7 119.4 30.95 97.67 46.95 97.67 42.69 100.23 46.57 130.99 50.16 130.99"/><polygon class="cls-2" points="52.91 130.99 55.28 130.99 55.28 113.72 52.58 111.4 64.75 107.14 64.75 130.99 67.11 130.99 67.11 131.75 52.91 131.75 52.91 130.99"/><path class="cls-2" d="M54.76,101A4.87,4.87,0,0,1,60,95.78,4.88,4.88,0,0,1,65.27,101c0,3.17-1.9,5.3-5.26,5.3S54.76,104.21,54.76,101Z"/><path class="cls-2" d="M91.81,131V117.88c0-6.86-3.17-10.27-9.12-10.27-4.73,0-8.24,2-11.45,5.54l.23.23a7.9,7.9,0,0,1,5.21-1.8c3.59,0,5.68,2.61,5.68,7.81-7.86.86-12.5,3.75-12.5,8.1,0,3,2.09,4.73,5.16,4.73a11.62,11.62,0,0,0,7.34-3.16v2.69H94.18V131Zm-9.45-2.6a5.05,5.05,0,0,1-1.09.14c-1.89,0-2.84-1.18-2.84-3.4A4.82,4.82,0,0,1,82.36,120Z"/><polygon class="cls-2" points="137.55 130.94 141.33 130.94 141.33 131.71 123.35 131.71 123.35 130.94 127.13 130.94 127.13 114.06 115.97 114.06 115.97 113.19 127.13 113.19 127.13 100.14 122.92 97.63 141.76 97.63 137.55 100.14 137.55 130.94"/><path class="cls-2" d="M172.29,131v.75H160.46v-3.64c-3.13,2.27-5.82,4.16-8.47,4.16-4.26,0-6.11-2.46-6.11-8.09V114l-2.7-2.32,12.17-4.26v14.86c0,4,.33,5.54,2.69,5.54a7.43,7.43,0,0,0,2.42-.48V113.72l-2.7-2.32,12.16-4.26V131Z"/><path class="cls-2" d="M197,130.94v-13.1c0-6.87-3.17-10.27-9.13-10.27-4.73,0-8.24,1.94-11.45,5.53l.24.24a7.88,7.88,0,0,1,5.21-1.8c3.58,0,5.68,2.6,5.68,7.81-7.87.85-12.51,3.74-12.51,8.1,0,3,2.09,4.73,5.17,4.73a11.68,11.68,0,0,0,7.34-3.17v2.7h11.81v-.77Zm-9.45-2.6a4.56,4.56,0,0,1-1.1.14c-1.89,0-2.84-1.18-2.84-3.4a4.84,4.84,0,0,1,3.94-5.12Z"/><rect class="cls-1" x="12.78" y="84.95" width="173.8" height="1"/><rect class="cls-1" x="27.18" y="79.19" width="145" height="1"/><rect class="cls-1" x="12.78" y="182.87" width="173.8" height="1"/><rect class="cls-1" x="27.18" y="188.62" width="145" height="1"/><path class="cls-1" d="M115.7,62.78c0,5.2-1.41,9.81-3.57,12.66-.18.86-.78,1.62-3.09,3-5.16,3.18-40.74,5.13-49,.6a6.69,6.69,0,0,1-3.48-3.64C54.38,72.59,53,68,53,62.78c0-8.67,3.9-15.69,8.71-15.69a5.08,5.08,0,0,1,1.88.37,32.54,32.54,0,0,1,5.36-15.71l0,0c2.93-5.43,4-16.29,4-16.29C72.91,8.31,78,2.54,84.33,2.54S95.74,8.29,95.75,15.39l.12,0s1,10.86,4,16.29a3.62,3.62,0,0,1,.24.56,32.74,32.74,0,0,1,5,15.19,5.08,5.08,0,0,1,1.88-.37C111.8,47.09,115.7,54.11,115.7,62.78Z"/><path class="cls-1" d="M89.05,3.93S92.13-1,95.83.19L93.7,9.33Z"/><path class="cls-1" d="M79.62,3.93S76.54-1,72.84.19L75,9.33Z"/><path class="cls-1" d="M65.85,10.05c1.06,0,2.11.11,3.17.16s2.11.15,3.16.25a14.32,14.32,0,0,1,3.14.35,9.24,9.24,0,0,1,3,1.43l0,.2a9,9,0,0,1-3.26.34A14.93,14.93,0,0,1,71.9,12c-1-.27-2-.55-3.05-.85s-2-.6-3-.94Z"/><path class="cls-1" d="M65.81,14.49c1-.34,2-.63,3-.94s2-.58,3.05-.84A14.34,14.34,0,0,1,75,12a9,9,0,0,1,3.26.34l0,.2a9,9,0,0,1-3,1.43,14.32,14.32,0,0,1-3.14.35c-1.05.1-2.1.19-3.16.25s-2.11.13-3.17.16Z"/><path class="cls-1" d="M102.86,10.25c-1,.34-2,.63-3,.94s-2,.58-3,.85a14.93,14.93,0,0,1-3.07.74,9,9,0,0,1-3.26-.34l0-.2a9.24,9.24,0,0,1,2.95-1.43,14.32,14.32,0,0,1,3.14-.35c1.05-.1,2.1-.18,3.16-.25s2.11-.13,3.17-.16Z"/><path class="cls-1" d="M102.82,14.69c-1.06,0-2.11-.11-3.17-.16s-2.11-.15-3.16-.25a14.32,14.32,0,0,1-3.14-.35A9,9,0,0,1,90.4,12.5l0-.2A9,9,0,0,1,93.7,12a14.34,14.34,0,0,1,3.07.75c1,.26,2,.54,3,.84s2,.6,3,.94Z"/><path class="cls-1" d="M90.92,63.58a23.62,23.62,0,0,1,6.62.75,30.31,30.31,0,0,1,6.33,2.36,29.51,29.51,0,0,1,5.88,4,24.82,24.82,0,0,1,2.63,2.69l1.23,1.5a18.92,18.92,0,0,1,1.1,1.65,26.23,26.23,0,0,1,1.89,3.61,12.57,12.57,0,0,1,.72,2c.2.68.41,1.37.6,2.06a31.55,31.55,0,0,1,.69,8,32.73,32.73,0,0,1-.28,3.57c-.12,1.18-.29,2.16-.43,3.25l-.54,2.91c-.16.88-.35,1.85-.47,2.65s-.35,1.68-.45,2.44l-.18,1.17c-.05.37-.06.73-.12,1.1s-.12.74-.16,1.09l-.07,1c-.09.72,0,1.39-.09,2.08a14.28,14.28,0,0,0,0,2.07c0,.35,0,.7,0,1.06l.12,1.06.11,1.09c.08.36.18.72.24,1.1a17.22,17.22,0,0,0,.47,2.31,42.29,42.29,0,0,0,3.05,9,12.85,12.85,0,0,0,2.61,3.69,9.21,9.21,0,0,0,2,1.45,8.8,8.8,0,0,0,2.67.93l.38.08a.48.48,0,0,1,.08.92,10,10,0,0,1-6.17.32,14.21,14.21,0,0,1-5.44-2.85A29.29,29.29,0,0,1,109,126a34.44,34.44,0,0,1-3.48-11.48,41.6,41.6,0,0,1,.6-12c.73-3.9,1.76-7.67,2.16-11.44a24.57,24.57,0,0,0,0-5.62,19.8,19.8,0,0,0-1.57-5.35,24,24,0,0,0-2.89-4.84,33.31,33.31,0,0,0-3.89-4.17,40.74,40.74,0,0,0-9.42-6.57.53.53,0,0,1,.22-1Z"/></g></g></svg>